<svg width="502.91998291015625px" height="150.64000244140624px" xmlns="http://www.w3.org/2000/svg" viewBox="-1.459991455078125 -0.3200012207031193 502.91998291015625 150.64000244140624" style="background: none;" preserveAspectRatio="xMidYMid"><defs><filter id="editing-extrude-glow"><feFlood flood-color="#80a352" result="flood-1"></feFlood><feMorphology operator="erode" radius="1" in="SourceAlpha" result="erode"></feMorphology><feComposite operator="in" in="flood-1" in2="erode" result="comp1"></feComposite><feConvolveMatrix order="0,0" divisor="1" in="comp1" result="convolve" kernelMatrix=""></feConvolveMatrix><feOffset dx="0" dy="0" in="convolve" result="extrude"></feOffset><feComposite operator="in" in="flood-1" in2="extrude" result="comp-extrude"></feComposite><feFlood flood-color="#cfd7cc" result="flood-2"></feFlood><feComposite operator="in" in="flood-2" in2="SourceAlpha" result="comp2"></feComposite><feMorphology operator="dilate" radius="1" in="comp2" result="dilate"></feMorphology><feOffset dx="0" dy="0" in="dilate" result="offset"></feOffset><feGaussianBlur in="offset" stdDeviation="5.8" result="blur"></feGaussianBlur><feComponentTransfer in="blur" result="shadow"><feFuncA type="linear" slope="0.8" intercept="-0.2"></feFuncA></feComponentTransfer><feMerge><feMergeNode in="shadow"></feMergeNode><feMergeNode in="comp-extrude"></feMergeNode><feMergeNode in="SourceGraphic"></feMergeNode></feMerge></filter></defs><g filter="url(#editing-extrude-glow)"><g transform="translate(74.63999700546265, 105.78499794006348)"><path d="M3.33 0L2.56-0.96L3.33-1.98L3.33-1.98Q4.80-3.90 5.41-6.02L5.41-6.02L5.41-6.02Q6.02-8.13 6.02-11.65L6.02-11.65L6.02-30.02L6.02-30.02Q6.02-33.41 5.41-35.55L5.41-35.55L5.41-35.55Q4.80-37.70 3.33-39.62L3.33-39.62L2.56-40.70L3.33-41.60L20.48-41.60L20.48-41.60Q23.10-41.60 24.67-41.89L24.67-41.89L24.67-41.89Q26.24-42.18 27.20-42.82L27.20-42.82L28.16-43.58L29.06-42.82L29.06-32.51L27.20-31.81L26.75-33.22L26.75-33.22Q26.18-35.39 25.54-36.45L25.54-36.45L25.54-36.45Q24.90-37.50 23.74-37.95L23.74-37.95L23.74-37.95Q22.59-38.40 20.48-38.40L20.48-38.40L15.36-38.40L15.36-38.40Q13.12-38.40 12.42-37.50L12.42-37.50L12.42-37.50Q11.71-36.61 11.71-33.92L11.71-33.92L11.71-22.21L18.56-22.21L18.56-22.21Q19.97-22.21 21.02-22.78L21.02-22.78L21.02-22.78Q22.08-23.36 23.04-24.90L23.04-24.90L23.55-25.54L24.77-24.90L24.77-14.91L22.72-14.27L22.46-15.55L22.46-15.55Q21.89-17.54 20.54-18.24L20.54-18.24L20.54-18.24Q19.20-18.94 16.06-18.94L16.06-18.94L11.71-18.94L11.71-7.68L11.71-7.68Q11.71-4.99 12.42-4L12.42-4L12.42-4Q13.12-3.01 15.36-2.30L15.36-2.30L16.77-1.98L16.06 0L3.33 0ZM40.51-34.37L40.51-34.37Q39.55-34.37 38.27-35.71L38.27-35.71L38.27-35.71Q36.99-37.06 36.99-38.14L36.99-38.14L36.99-38.14Q36.99-39.23 38.24-40.58L38.24-40.58L38.24-40.58Q39.49-41.92 40.51-41.92L40.51-41.92L40.51-41.92Q41.60-41.92 42.88-40.58L42.88-40.58L42.88-40.58Q44.16-39.23 44.16-38.14L44.16-38.14L44.16-38.14Q44.16-37.06 42.88-35.71L42.88-35.71L42.88-35.71Q41.60-34.37 40.51-34.37L40.51-34.37ZM42.43 0.83L42.43 0.83Q40.06 0.83 39.01-0.61L39.01-0.61L39.01-0.61Q37.95-2.05 37.95-5.31L37.95-5.31L37.95-23.23L37.95-23.23Q37.95-24 37.70-24.32L37.70-24.32L37.70-24.32Q37.44-24.64 36.80-24.64L36.80-24.64L34.18-24.64L33.73-26.05L33.73-26.05Q35.39-27.58 37.54-28.54L37.54-28.54L37.54-28.54Q39.68-29.50 41.28-29.50L41.28-29.50L41.28-29.50Q42.11-29.50 42.66-29.02L42.66-29.02L42.66-29.02Q43.20-28.54 43.20-27.78L43.20-27.78L43.20-5.12L43.20-5.12Q43.20-3.14 44.93-3.14L44.93-3.14L44.93-3.14Q46.27-3.14 47.87-4.35L47.87-4.35L48.96-2.88L48.96-2.88Q47.36-1.22 45.60-0.19L45.60-0.19L45.60-0.19Q43.84 0.83 42.43 0.83L42.43 0.83ZM59.90 0.83L59.90 0.83Q57.47 0.83 56.42-0.61L56.42-0.61L56.42-0.61Q55.36-2.05 55.36-5.31L55.36-5.31L55.36-39.10L55.36-39.10Q55.36-39.81 55.10-40.10L55.10-40.10L55.10-40.10Q54.85-40.38 54.21-40.38L54.21-40.38L51.71-40.38L51.14-41.86L51.14-41.86Q52.80-43.39 54.98-44.38L54.98-44.38L54.98-44.38Q57.15-45.38 58.88-45.38L58.88-45.38L58.88-45.38Q59.71-45.38 60.22-44.86L60.22-44.86L60.22-44.86Q60.74-44.35 60.74-43.52L60.74-43.52L60.61-5.12L60.61-5.12Q60.61-4.16 61.06-3.65L61.06-3.65L61.06-3.65Q61.50-3.14 62.34-3.14L62.34-3.14L62.34-3.14Q63.94-3.14 65.22-4.35L65.22-4.35L66.37-2.88L66.37-2.88Q64.90-1.22 63.10-0.19L63.10-0.19L63.10-0.19Q61.31 0.83 59.90 0.83L59.90 0.83ZM114.05 0.83L114.05 0.83Q111.68 0.83 110.62-0.61L110.62-0.61L110.62-0.61Q109.57-2.05 109.57-5.31L109.57-5.31L109.57-19.14L109.57-19.14Q109.57-25.09 105.28-25.09L105.28-25.09L105.28-25.09Q102.91-25.09 101.02-23.20L101.02-23.20L101.02-23.20Q99.14-21.31 98.05-17.89L98.05-17.89L98.05-17.89Q96.96-14.46 96.90-9.98L96.90-9.98L96.90-9.28L96.90-9.28Q96.90-6.34 97.38-4.54L97.38-4.54L97.38-4.54Q97.86-2.75 99.39-0.90L99.39-0.90L98.69 0L91.71 0L91.71-19.14L91.71-19.14Q91.71-22.08 90.59-23.58L90.59-23.58L90.59-23.58Q89.47-25.09 87.30-25.09L87.30-25.09L87.30-25.09Q84.80-25.09 82.91-23.10L82.91-23.10L82.91-23.10Q81.02-21.12 80-17.54L80-17.54L80-17.54Q78.98-13.95 78.98-9.28L78.98-9.28L78.98-9.28Q78.98-6.59 79.39-4.93L79.39-4.93L79.39-4.93Q79.81-3.26 80.83-1.79L80.83-1.79L81.54-0.90L80.83 0L70.66 0L70.08-1.79L71.17-2.11L71.17-2.11Q72.70-2.37 73.18-3.30L73.18-3.30L73.18-3.30Q73.66-4.22 73.66-6.46L73.66-6.46L73.66-22.72L73.66-22.72Q73.66-23.42 73.41-23.71L73.41-23.71L73.41-23.71Q73.15-24 72.51-24L72.51-24L70.02-24L69.44-25.54L69.44-25.54Q71.10-27.07 73.28-28.03L73.28-28.03L73.28-28.03Q75.46-28.99 77.12-28.99L77.12-28.99L77.12-28.99Q77.95-28.99 78.46-28.48L78.46-28.48L78.46-28.48Q78.98-27.97 78.98-27.20L78.98-27.20L78.98-20.86L78.98-20.86Q80.45-24.70 83.36-27.10L83.36-27.10L83.36-27.10Q86.27-29.50 89.47-29.50L89.47-29.50L89.47-29.50Q93.06-29.50 94.85-27.42L94.85-27.42L94.85-27.42Q96.64-25.34 96.90-20.86L96.90-20.86L96.90-20.86Q98.37-24.64 101.31-27.07L101.31-27.07L101.31-27.07Q104.26-29.50 107.39-29.50L107.39-29.50L107.39-29.50Q111.30-29.50 113.06-27.01L113.06-27.01L113.06-27.01Q114.82-24.51 114.82-19.14L114.82-19.14L114.82-5.12L114.82-5.12Q114.82-3.14 116.48-3.14L116.48-3.14L116.48-3.14Q117.95-3.14 119.36-4.35L119.36-4.35L120.51-2.88L120.51-2.88Q118.98-1.15 117.25-0.16L117.25-0.16L117.25-0.16Q115.52 0.83 114.05 0.83L114.05 0.83ZM141.25 0L140.48-1.98L141.82-2.30L141.82-2.30Q144.19-3.01 145.22-4L145.22-4L145.22-4Q146.24-4.99 147.14-7.68L147.14-7.68L156.22-33.92L156.22-33.92Q156.86-35.97 156.86-36.74L156.86-36.74L156.86-36.74Q156.86-37.82 156.26-38.43L156.26-38.43L156.26-38.43Q155.65-39.04 154.30-39.30L154.30-39.30L152.96-39.62L153.66-41.60L164.80-41.60L176.51-8.06L176.51-8.06Q177.47-5.31 178.53-3.97L178.53-3.97L178.53-3.97Q179.58-2.62 181.76-0.96L181.76-0.96L180.99 0L167.87 0L167.23-1.98L168.64-2.30L168.64-2.30Q169.98-2.62 170.59-3.23L170.59-3.23L170.59-3.23Q171.20-3.84 171.20-4.93L171.20-4.93L171.20-4.93Q171.20-5.57 170.91-6.43L170.91-6.43L170.91-6.43Q170.62-7.30 170.50-7.68L170.50-7.68L167.74-15.81L154.37-15.81L152.96-11.58L152.96-11.58Q151.68-7.62 151.68-5.50L151.68-5.50L151.68-5.50Q151.68-3.39 152.51-1.98L152.51-1.98L152.96-0.96L151.87 0L141.25 0ZM161.02-35.71L155.65-19.46L166.59-19.46L161.02-35.71ZM185.86 0L185.28-1.79L186.37-2.11L186.37-2.11Q187.90-2.37 188.38-3.30L188.38-3.30L188.38-3.30Q188.86-4.22 188.86-6.46L188.86-6.46L188.86-22.72L188.86-22.72Q188.86-23.42 188.61-23.71L188.61-23.71L188.61-23.71Q188.35-24 187.71-24L187.71-24L185.22-24L184.64-25.54L184.64-25.54Q186.30-27.07 188.48-28.03L188.48-28.03L188.48-28.03Q190.66-28.99 192.32-28.99L192.32-28.99L192.32-28.99Q193.15-28.99 193.66-28.48L193.66-28.48L193.66-28.48Q194.18-27.97 194.18-27.20L194.18-27.20L194.18-20.86L194.50-20.86L194.50-20.86Q195.52-24.77 197.60-27.14L197.60-27.14L197.60-27.14Q199.68-29.50 202.11-29.50L202.11-29.50L202.11-29.50Q204.54-29.50 206.11-27.94L206.11-27.94L206.11-27.94Q207.68-26.37 207.68-23.62L207.68-23.62L207.68-23.62Q207.68-21.44 206.08-19.97L206.08-19.97L206.08-19.97Q204.48-18.50 202.05-18.50L202.05-18.50L202.05-18.50Q200.90-18.50 200.90-19.07L200.90-19.07L200.90-19.07Q200.90-19.26 201.34-19.97L201.34-19.97L201.34-19.97Q201.79-20.67 202.11-21.38L202.11-21.38L202.11-21.38Q202.43-22.08 202.43-23.04L202.43-23.04L202.43-23.04Q202.43-24.13 201.92-24.74L201.92-24.74L201.92-24.74Q201.41-25.34 200.58-25.34L200.58-25.34L200.58-25.34Q199.23-25.34 197.76-23.68L197.76-23.68L197.76-23.68Q196.29-22.02 195.23-18.37L195.23-18.37L195.23-18.37Q194.18-14.72 194.18-9.09L194.18-9.09L194.18-9.09Q194.18-6.46 194.59-4.83L194.59-4.83L194.59-4.83Q195.01-3.20 196.03-1.79L196.03-1.79L196.74-0.90L196.03 0L185.86 0ZM218.43 0.83L218.43 0.83Q216.06 0.83 214.72-0.67L214.72-0.67L214.72-0.67Q213.38-2.18 213.38-4.80L213.38-4.80L213.38-25.22L208.32-25.22L208.32-25.22Q208.32-26.75 208.58-27.23L208.58-27.23L208.58-27.23Q208.83-27.71 209.73-27.97L209.73-27.97L209.73-27.97Q212.80-28.74 214.08-30.53L214.08-30.53L214.08-30.53Q215.36-32.32 216-35.26L216-35.26L216-35.26Q216.13-36.16 216.61-36.38L216.61-36.38L216.61-36.38Q217.09-36.61 218.75-36.61L218.75-36.61L218.75-28.80L226.24-28.80L226.24-28.80Q226.24-27.58 225.89-26.62L225.89-26.62L225.89-26.62Q225.54-25.66 224.96-25.22L224.96-25.22L218.75-25.22L218.75-6.46L218.75-6.46Q218.75-4.67 219.23-3.94L219.23-3.94L219.23-3.94Q219.71-3.20 220.93-3.20L220.93-3.20L220.93-3.20Q222.66-3.20 224.83-5.06L224.83-5.06L225.92-3.52L225.92-3.52Q224.45-1.60 222.34-0.38L222.34-0.38L222.34-0.38Q220.22 0.83 218.43 0.83L218.43 0.83ZM236.22-34.37L236.22-34.37Q235.26-34.37 233.98-35.71L233.98-35.71L233.98-35.71Q232.70-37.06 232.70-38.14L232.70-38.14L232.70-38.14Q232.70-39.23 233.95-40.58L233.95-40.58L233.95-40.58Q235.20-41.92 236.22-41.92L236.22-41.92L236.22-41.92Q237.31-41.92 238.59-40.58L238.59-40.58L238.59-40.58Q239.87-39.23 239.87-38.14L239.87-38.14L239.87-38.14Q239.87-37.06 238.59-35.71L238.59-35.71L238.59-35.71Q237.31-34.37 236.22-34.37L236.22-34.37ZM238.14 0.83L238.14 0.83Q235.78 0.83 234.72-0.61L234.72-0.61L234.72-0.61Q233.66-2.05 233.66-5.31L233.66-5.31L233.66-23.23L233.66-23.23Q233.66-24 233.41-24.32L233.41-24.32L233.41-24.32Q233.15-24.64 232.51-24.64L232.51-24.64L229.89-24.64L229.44-26.05L229.44-26.05Q231.10-27.58 233.25-28.54L233.25-28.54L233.25-28.54Q235.39-29.50 236.99-29.50L236.99-29.50L236.99-29.50Q237.82-29.50 238.37-29.02L238.37-29.02L238.37-29.02Q238.91-28.54 238.91-27.78L238.91-27.78L238.91-5.12L238.91-5.12Q238.91-3.14 240.64-3.14L240.64-3.14L240.64-3.14Q241.98-3.14 243.58-4.35L243.58-4.35L244.67-2.88L244.67-2.88Q243.07-1.22 241.31-0.19L241.31-0.19L241.31-0.19Q239.55 0.83 238.14 0.83L238.14 0.83ZM258.69 0.83L258.69 0.83Q254.34 0.83 251.46-1.18L251.46-1.18L251.46-1.18Q248.58-3.20 248.58-6.46L248.58-6.46L248.58-6.46Q248.58-8.38 249.95-9.70L249.95-9.70L249.95-9.70Q251.33-11.01 253.44-11.01L253.44-11.01L253.44-11.01Q253.89-11.01 254.27-10.82L254.27-10.82L254.27-10.82Q254.66-10.62 254.66-10.30L254.66-10.30L254.66-10.30Q254.66-10.11 254.27-9.18L254.27-9.18L254.27-9.18Q253.89-8.26 253.89-6.98L253.89-6.98L253.89-6.98Q253.89-4.61 255.58-3.33L255.58-3.33L255.58-3.33Q257.28-2.05 259.39-2.05L259.39-2.05L259.39-2.05Q261.82-2.05 263.36-3.33L263.36-3.33L263.36-3.33Q264.90-4.61 264.90-6.66L264.90-6.66L264.90-6.66Q264.90-8.51 263.26-9.73L263.26-9.73L263.26-9.73Q261.63-10.94 258.56-12.22L258.56-12.22L258.56-12.22Q255.74-13.44 253.86-14.53L253.86-14.53L253.86-14.53Q251.97-15.62 250.62-17.41L250.62-17.41L250.62-17.41Q249.28-19.20 249.28-21.76L249.28-21.76L249.28-21.76Q249.28-25.15 252.29-27.33L252.29-27.33L252.29-27.33Q255.30-29.50 259.84-29.50L259.84-29.50L259.84-29.50Q264-29.50 266.69-27.94L266.69-27.94L266.69-27.94Q269.38-26.37 269.38-23.62L269.38-23.62L269.38-23.62Q269.38-21.38 268.03-19.97L268.03-19.97L268.03-19.97Q266.69-18.56 264.51-18.56L264.51-18.56L264.51-18.56Q263.23-18.56 263.23-19.39L263.23-19.39L263.23-19.39Q263.23-19.65 263.71-20.54L263.71-20.54L263.71-20.54Q264.19-21.44 264.19-22.59L264.19-22.59L264.19-22.59Q264.19-24.64 262.72-25.70L262.72-25.70L262.72-25.70Q261.25-26.75 259.39-26.75L259.39-26.75L259.39-26.75Q257.02-26.75 255.65-25.60L255.65-25.60L255.65-25.60Q254.27-24.45 254.27-22.59L254.27-22.59L254.27-22.59Q254.27-20.42 256.06-19.04L256.06-19.04L256.06-19.04Q257.86-17.66 261.12-16.45L261.12-16.45L261.12-16.45Q263.94-15.23 265.79-14.21L265.79-14.21L265.79-14.21Q267.65-13.18 268.93-11.62L268.93-11.62L268.93-11.62Q270.21-10.05 270.21-7.94L270.21-7.94L270.21-7.94Q270.21-3.97 267.04-1.57L267.04-1.57L267.04-1.57Q263.87 0.83 258.69 0.83L258.69 0.83ZM284.10 0.83L284.10 0.83Q281.73 0.83 280.38-0.67L280.38-0.67L280.38-0.67Q279.04-2.18 279.04-4.80L279.04-4.80L279.04-25.22L273.98-25.22L273.98-25.22Q273.98-26.75 274.24-27.23L274.24-27.23L274.24-27.23Q274.50-27.71 275.39-27.97L275.39-27.97L275.39-27.97Q278.46-28.74 279.74-30.53L279.74-30.53L279.74-30.53Q281.02-32.32 281.66-35.26L281.66-35.26L281.66-35.26Q281.79-36.16 282.27-36.38L282.27-36.38L282.27-36.38Q282.75-36.61 284.42-36.61L284.42-36.61L284.42-28.80L291.90-28.80L291.90-28.80Q291.90-27.58 291.55-26.62L291.55-26.62L291.55-26.62Q291.20-25.66 290.62-25.22L290.62-25.22L284.42-25.22L284.42-6.46L284.42-6.46Q284.42-4.67 284.90-3.94L284.90-3.94L284.90-3.94Q285.38-3.20 286.59-3.20L286.59-3.20L286.59-3.20Q288.32-3.20 290.50-5.06L290.50-5.06L291.58-3.52L291.58-3.52Q290.11-1.60 288-0.38L288-0.38L288-0.38Q285.89 0.83 284.10 0.83L284.10 0.83ZM296.58 0L296-1.79L297.09-2.11L297.09-2.11Q298.62-2.37 299.10-3.30L299.10-3.30L299.10-3.30Q299.58-4.22 299.58-6.46L299.58-6.46L299.58-22.72L299.58-22.72Q299.58-23.42 299.33-23.71L299.33-23.71L299.33-23.71Q299.07-24 298.43-24L298.43-24L295.94-24L295.36-25.54L295.36-25.54Q297.02-27.07 299.20-28.03L299.20-28.03L299.20-28.03Q301.38-28.99 303.04-28.99L303.04-28.99L303.04-28.99Q303.87-28.99 304.38-28.48L304.38-28.48L304.38-28.48Q304.90-27.97 304.90-27.20L304.90-27.20L304.90-20.86L305.22-20.86L305.22-20.86Q306.24-24.77 308.32-27.14L308.32-27.14L308.32-27.14Q310.40-29.50 312.83-29.50L312.83-29.50L312.83-29.50Q315.26-29.50 316.83-27.94L316.83-27.94L316.83-27.94Q318.40-26.37 318.40-23.62L318.40-23.62L318.40-23.62Q318.40-21.44 316.80-19.97L316.80-19.97L316.80-19.97Q315.20-18.50 312.77-18.50L312.77-18.50L312.77-18.50Q311.62-18.50 311.62-19.07L311.62-19.07L311.62-19.07Q311.62-19.26 312.06-19.97L312.06-19.97L312.06-19.97Q312.51-20.67 312.83-21.38L312.83-21.38L312.83-21.38Q313.15-22.08 313.15-23.04L313.15-23.04L313.15-23.04Q313.15-24.13 312.64-24.74L312.64-24.74L312.64-24.74Q312.13-25.34 311.30-25.34L311.30-25.34L311.30-25.34Q309.95-25.34 308.48-23.68L308.48-23.68L308.48-23.68Q307.01-22.02 305.95-18.37L305.95-18.37L305.95-18.37Q304.90-14.72 304.90-9.09L304.90-9.09L304.90-9.09Q304.90-6.46 305.31-4.83L305.31-4.83L305.31-4.83Q305.73-3.20 306.75-1.79L306.75-1.79L307.46-0.90L306.75 0L296.58 0ZM335.30 16.19L335.30 16.19Q332.10 16.19 329.82 15.01L329.82 15.01L329.82 15.01Q327.55 13.82 326.43 11.90L326.43 11.90L326.43 11.90Q325.31 9.98 325.31 7.87L325.31 7.87L325.31 7.87Q325.31 4.93 327.30 2.88L327.30 2.88L327.30 2.88Q329.28 0.83 332.74 0.83L332.74 0.83L332.74 0.83Q333.25 0.83 333.50 0.99L333.50 0.99L333.50 0.99Q333.76 1.15 333.76 1.41L333.76 1.41L333.76 1.41Q333.76 1.66 332.96 2.53L332.96 2.53L332.96 2.53Q332.16 3.39 331.55 4.61L331.55 4.61L331.55 4.61Q330.94 5.82 330.94 7.68L330.94 7.68L330.94 7.68Q330.94 9.98 332.32 11.55L332.32 11.55L332.32 11.55Q333.70 13.12 336 13.12L336 13.12L336 13.12Q339.58 13.12 341.31 10.14L341.31 10.14L341.31 10.14Q343.04 7.17 343.04 2.18L343.04 2.18L343.04-6.40L343.04-6.40Q341.63-3.84 338.98-2.37L338.98-2.37L338.98-2.37Q336.32-0.90 333.06-0.90L333.06-0.90L333.06-0.90Q328.96-0.90 326.69-3.42L326.69-3.42L326.69-3.42Q324.42-5.95 324.42-10.50L324.42-10.50L324.42-23.30L324.42-23.30Q324.42-24.06 324.16-24.38L324.16-24.38L324.16-24.38Q323.90-24.70 323.26-24.70L323.26-24.70L320.64-24.70L320.19-26.11L320.19-26.11Q321.66-27.65 323.81-28.61L323.81-28.61L323.81-28.61Q325.95-29.57 327.74-29.57L327.74-29.57L327.74-29.57Q328.58-29.57 329.12-29.09L329.12-29.09L329.12-29.09Q329.66-28.61 329.66-27.84L329.66-27.84L329.66-11.84L329.66-11.84Q329.66-8.38 331.07-6.59L331.07-6.59L331.07-6.59Q332.48-4.80 335.10-4.80L335.10-4.80L335.10-4.80Q339.01-4.80 341.18-7.68L341.18-7.68L341.18-7.68Q343.36-10.56 343.36-15.81L343.36-15.81L343.36-15.81Q343.36-20.61 342.98-22.91L342.98-22.91L342.98-22.91Q342.59-25.22 341.06-27.14L341.06-27.14L340.42-28.03L341.06-28.86L348.16-29.57L348.16 1.28L348.16 1.28Q348.16 8.38 344.70 12.29L344.70 12.29L344.70 12.29Q341.25 16.19 335.30 16.19L335.30 16.19Z" fill="#63bcc7"></path></g></g><style>text {
  font-size: 64px;
  font-family: Arial Black;
  dominant-baseline: central;
  text-anchor: middle;
}</style></svg>