<svg width="493.7599853515625px" height="150.64000244140624px" xmlns="http://www.w3.org/2000/svg" viewBox="3.1200073242187614 -0.3200012207031193 493.7599853515625 150.64000244140624" style="background: none;" preserveAspectRatio="xMidYMid"><defs><filter id="editing-extrude-glow"><feFlood flood-color="#80a352" result="flood-1"></feFlood><feMorphology operator="erode" radius="1" in="SourceAlpha" result="erode"></feMorphology><feComposite operator="in" in="flood-1" in2="erode" result="comp1"></feComposite><feConvolveMatrix order="0,0" divisor="1" in="comp1" result="convolve" kernelMatrix=""></feConvolveMatrix><feOffset dx="0" dy="0" in="convolve" result="extrude"></feOffset><feComposite operator="in" in="flood-1" in2="extrude" result="comp-extrude"></feComposite><feFlood flood-color="#cfd7cc" result="flood-2"></feFlood><feComposite operator="in" in="flood-2" in2="SourceAlpha" result="comp2"></feComposite><feMorphology operator="dilate" radius="1" in="comp2" result="dilate"></feMorphology><feOffset dx="0" dy="0" in="dilate" result="offset"></feOffset><feGaussianBlur in="offset" stdDeviation="5.8" result="blur"></feGaussianBlur><feComponentTransfer in="blur" result="shadow"><feFuncA type="linear" slope="0.8" intercept="-0.2"></feFuncA></feComponentTransfer><feMerge><feMergeNode in="shadow"></feMergeNode><feMergeNode in="comp-extrude"></feMergeNode><feMergeNode in="SourceGraphic"></feMergeNode></feMerge></filter></defs><g filter="url(#editing-extrude-glow)"><g transform="translate(76.53000211715698, 104.30999946594238)"><path d="M2.69 0L1.98-1.98L3.33-2.30L3.33-2.30Q5.57-3.01 6.27-4L6.27-4L6.27-4Q6.98-4.99 6.98-7.68L6.98-7.68L6.98-33.92L6.98-33.92Q6.98-36.61 6.24-37.66L6.24-37.66L6.24-37.66Q5.50-38.72 3.33-39.30L3.33-39.30L1.98-39.62L2.69-41.60L12.03-41.60L34.18-8.77L34.18-33.92L34.18-33.92Q34.18-36.54 33.41-37.63L33.41-37.63L33.41-37.63Q32.64-38.72 30.46-39.30L30.46-39.30L29.06-39.62L29.89-41.60L40.77-41.60L41.60-40.70L40.77-39.62L40.77-39.62Q39.36-37.76 38.78-35.62L38.78-35.62L38.78-35.62Q38.21-33.47 38.21-30.02L38.21-30.02L38.21-5.12L38.21-5.12Q38.21-3.33 39.04-1.98L39.04-1.98L39.74-0.96L39.04 0L33.22 0L11.14-32.83L11.14-11.65L11.14-11.65Q11.14-8.06 11.68-5.95L11.68-5.95L11.68-5.95Q12.22-3.84 13.70-1.98L13.70-1.98L14.46-0.96L13.70 0L2.69 0ZM55.68 0.83L55.68 0.83Q52.86 0.83 50.46-0.80L50.46-0.80L50.46-0.80Q48.06-2.43 46.62-5.60L46.62-5.60L46.62-5.60Q45.18-8.77 45.18-13.31L45.18-13.31L45.18-13.31Q45.18-20.80 49.25-25.15L49.25-25.15L49.25-25.15Q53.31-29.50 60.22-29.50L60.22-29.50L60.22-29.50Q62.53-29.50 66.50-28.80L66.50-28.80L66.50-28.80Q69.44-28.29 71.81-28.10L71.81-28.10L72.58-27.39L71.74-26.30L71.74-26.30Q71.30-25.54 71.14-25.12L71.14-25.12L71.14-25.12Q70.98-24.70 70.98-24L70.98-24L70.98-5.12L70.98-5.12Q70.98-3.33 72.83-3.33L72.83-3.33L72.83-3.33Q74.24-3.33 75.71-4.35L75.71-4.35L76.80-2.88L76.80-2.88Q75.26-1.15 73.54-0.16L73.54-0.16L73.54-0.16Q71.81 0.83 70.40 0.83L70.40 0.83L70.40 0.83Q67.97 0.83 66.88-0.61L66.88-0.61L66.88-0.61Q65.79-2.05 65.79-5.31L65.79-5.31L65.79-5.31Q63.49-1.92 61.02-0.54L61.02-0.54L61.02-0.54Q58.56 0.83 55.68 0.83L55.68 0.83ZM57.92-3.71L57.92-3.71Q62.78-3.71 65.79-8.96L65.79-8.96L65.79-24.64L65.79-24.64Q63.30-26.30 60.16-26.30L60.16-26.30L60.16-26.30Q56.00-26.30 53.66-23.20L53.66-23.20L53.66-23.20Q51.33-20.10 51.33-14.40L51.33-14.40L51.33-14.40Q51.33-8.90 53.22-6.30L53.22-6.30L53.22-6.30Q55.10-3.71 57.92-3.71L57.92-3.71ZM94.34 0.83L94.34 0.83Q87.81 0.83 83.97-3.30L83.97-3.30L83.97-3.30Q80.13-7.42 80.13-14.40L80.13-14.40L80.13-14.40Q80.13-21.38 83.97-25.44L83.97-25.44L83.97-25.44Q87.81-29.50 94.34-29.50L94.34-29.50L94.34-29.50Q98.62-29.50 101.82-27.65L101.82-27.65L101.82-27.65Q105.02-25.79 106.75-22.40L106.75-22.40L106.75-22.40Q108.48-19.01 108.48-14.40L108.48-14.40L108.48-14.40Q108.48-9.79 106.72-6.34L106.72-6.34L106.72-6.34Q104.96-2.88 101.76-1.02L101.76-1.02L101.76-1.02Q98.56 0.83 94.34 0.83L94.34 0.83ZM94.21-2.30L94.21-2.30Q97.86-2.30 100.13-5.60L100.13-5.60L100.13-5.60Q102.40-8.90 102.40-14.27L102.40-14.27L102.40-14.27Q102.40-17.02 101.63-19.81L101.63-19.81L101.63-19.81Q100.86-22.59 99.10-24.54L99.10-24.54L99.10-24.54Q97.34-26.50 94.53-26.50L94.53-26.50L94.53-26.50Q90.75-26.50 88.48-23.17L88.48-23.17L88.48-23.17Q86.21-19.84 86.21-14.34L86.21-14.34L86.21-14.34Q86.21-8.83 88.35-5.57L88.35-5.57L88.35-5.57Q90.50-2.30 94.21-2.30L94.21-2.30ZM157.95 0.83L157.95 0.83Q155.58 0.83 154.53-0.61L154.53-0.61L154.53-0.61Q153.47-2.05 153.47-5.31L153.47-5.31L153.47-19.14L153.47-19.14Q153.47-25.09 149.18-25.09L149.18-25.09L149.18-25.09Q146.82-25.09 144.93-23.20L144.93-23.20L144.93-23.20Q143.04-21.31 141.95-17.89L141.95-17.89L141.95-17.89Q140.86-14.46 140.80-9.98L140.80-9.98L140.80-9.28L140.80-9.28Q140.80-6.34 141.28-4.54L141.28-4.54L141.28-4.54Q141.76-2.75 143.30-0.90L143.30-0.90L142.59 0L135.62 0L135.62-19.14L135.62-19.14Q135.62-22.08 134.50-23.58L134.50-23.58L134.50-23.58Q133.38-25.09 131.20-25.09L131.20-25.09L131.20-25.09Q128.70-25.09 126.82-23.10L126.82-23.10L126.82-23.10Q124.93-21.12 123.90-17.54L123.90-17.54L123.90-17.54Q122.88-13.95 122.88-9.28L122.88-9.28L122.88-9.28Q122.88-6.59 123.30-4.93L123.30-4.93L123.30-4.93Q123.71-3.26 124.74-1.79L124.74-1.79L125.44-0.90L124.74 0L114.56 0L113.98-1.79L115.07-2.11L115.07-2.11Q116.61-2.37 117.09-3.30L117.09-3.30L117.09-3.30Q117.57-4.22 117.57-6.46L117.57-6.46L117.57-22.72L117.57-22.72Q117.57-23.42 117.31-23.71L117.31-23.71L117.31-23.71Q117.06-24 116.42-24L116.42-24L113.92-24L113.34-25.54L113.34-25.54Q115.01-27.07 117.18-28.03L117.18-28.03L117.18-28.03Q119.36-28.99 121.02-28.99L121.02-28.99L121.02-28.99Q121.86-28.99 122.37-28.48L122.37-28.48L122.37-28.48Q122.88-27.97 122.88-27.20L122.88-27.20L122.88-20.86L122.88-20.86Q124.35-24.70 127.26-27.10L127.26-27.10L127.26-27.10Q130.18-29.50 133.38-29.50L133.38-29.50L133.38-29.50Q136.96-29.50 138.75-27.42L138.75-27.42L138.75-27.42Q140.54-25.34 140.80-20.86L140.80-20.86L140.80-20.86Q142.27-24.64 145.22-27.07L145.22-27.07L145.22-27.07Q148.16-29.50 151.30-29.50L151.30-29.50L151.30-29.50Q155.20-29.50 156.96-27.01L156.96-27.01L156.96-27.01Q158.72-24.51 158.72-19.14L158.72-19.14L158.72-5.12L158.72-5.12Q158.72-3.14 160.38-3.14L160.38-3.14L160.38-3.14Q161.86-3.14 163.26-4.35L163.26-4.35L164.42-2.88L164.42-2.88Q162.88-1.15 161.15-0.16L161.15-0.16L161.15-0.16Q159.42 0.83 157.95 0.83L157.95 0.83ZM174.40-34.37L174.40-34.37Q173.44-34.37 172.16-35.71L172.16-35.71L172.16-35.71Q170.88-37.06 170.88-38.14L170.88-38.14L170.88-38.14Q170.88-39.23 172.13-40.58L172.13-40.58L172.13-40.58Q173.38-41.92 174.40-41.92L174.40-41.92L174.40-41.92Q175.49-41.92 176.77-40.58L176.77-40.58L176.77-40.58Q178.05-39.23 178.05-38.14L178.05-38.14L178.05-38.14Q178.05-37.06 176.77-35.71L176.77-35.71L176.77-35.71Q175.49-34.37 174.40-34.37L174.40-34.37ZM176.32 0.83L176.32 0.83Q173.95 0.83 172.90-0.61L172.90-0.61L172.90-0.61Q171.84-2.05 171.84-5.31L171.84-5.31L171.84-23.23L171.84-23.23Q171.84-24 171.58-24.32L171.58-24.32L171.58-24.32Q171.33-24.64 170.69-24.64L170.69-24.64L168.06-24.64L167.62-26.05L167.62-26.05Q169.28-27.58 171.42-28.54L171.42-28.54L171.42-28.54Q173.57-29.50 175.17-29.50L175.17-29.50L175.17-29.50Q176.00-29.50 176.54-29.02L176.54-29.02L176.54-29.02Q177.09-28.54 177.09-27.78L177.09-27.78L177.09-5.12L177.09-5.12Q177.09-3.14 178.82-3.14L178.82-3.14L178.82-3.14Q180.16-3.14 181.76-4.35L181.76-4.35L182.85-2.88L182.85-2.88Q181.25-1.22 179.49-0.19L179.49-0.19L179.49-0.19Q177.73 0.83 176.32 0.83L176.32 0.83ZM225.09 16.19L225.09 16.19Q221.70 16.19 219.30 15.01L219.30 15.01L219.30 15.01Q216.90 13.82 215.71 11.90L215.71 11.90L215.71 11.90Q214.53 9.98 214.53 7.87L214.53 7.87L214.53 7.87Q214.53 4.93 216.48 2.88L216.48 2.88L216.48 2.88Q218.43 0.83 221.89 0.83L221.89 0.83L221.89 0.83Q222.98 0.83 222.98 1.41L222.98 1.41L222.98 1.41Q222.98 1.66 222.14 2.53L222.14 2.53L222.14 2.53Q221.31 3.39 220.70 4.61L220.70 4.61L220.70 4.61Q220.10 5.82 220.10 7.68L220.10 7.68L220.10 7.68Q220.10 10.05 221.70 11.58L221.70 11.58L221.70 11.58Q223.30 13.12 226.05 13.12L226.05 13.12L226.05 13.12Q229.89 13.12 231.78 10.21L231.78 10.21L231.78 10.21Q233.66 7.30 233.66 0.70L233.66 0.70L233.66-4.80L233.66-4.80Q228.99-0.96 223.42-0.96L223.42-0.96L223.42-0.96Q217.54-0.96 213.50-3.71L213.50-3.71L213.50-3.71Q209.47-6.46 207.46-11.20L207.46-11.20L207.46-11.20Q205.44-15.94 205.44-21.82L205.44-21.82L205.44-21.82Q205.44-27.46 207.58-32.13L207.58-32.13L207.58-32.13Q209.73-36.80 214.05-39.62L214.05-39.62L214.05-39.62Q218.37-42.43 224.58-42.43L224.58-42.43L224.58-42.43Q228.61-42.43 231.81-41.28L231.81-41.28L231.81-41.28Q235.01-40.13 236.80-38.05L236.80-38.05L236.80-38.05Q238.59-35.97 238.59-33.34L238.59-33.34L238.59-33.34Q238.59-30.34 236.83-28.42L236.83-28.42L236.83-28.42Q235.07-26.50 232.38-26.50L232.38-26.50L232.38-26.50Q231.55-26.50 231.39-26.62L231.39-26.62L231.39-26.62Q231.23-26.75 231.23-27.26L231.23-27.26L231.23-27.26Q231.23-27.46 231.71-28.26L231.71-28.26L231.71-28.26Q232.19-29.06 232.51-30.08L232.51-30.08L232.51-30.08Q232.83-31.10 232.83-32.51L232.83-32.51L232.83-32.51Q232.83-35.52 230.56-37.38L230.56-37.38L230.56-37.38Q228.29-39.23 224.58-39.23L224.58-39.23L224.58-39.23Q220.03-39.23 217.15-36.61L217.15-36.61L217.15-36.61Q214.27-33.98 212.99-30.08L212.99-30.08L212.99-30.08Q211.71-26.18 211.71-22.08L211.71-22.08L211.71-22.08Q211.71-17.28 213.18-13.31L213.18-13.31L213.18-13.31Q214.66-9.34 217.44-7.04L217.44-7.04L217.44-7.04Q220.22-4.74 223.87-4.74L223.87-4.74L223.87-4.74Q229.76-4.74 233.66-8.64L233.66-8.64L233.66-11.58L233.66-11.58Q233.66-14.21 232.86-15.26L232.86-15.26L232.86-15.26Q232.06-16.32 229.82-16.96L229.82-16.96L228.61-17.34L229.25-19.39L241.47-19.39L242.18-18.37L241.47-17.34L241.47-17.34Q240-15.42 239.39-13.25L239.39-13.25L239.39-13.25Q238.78-11.07 238.78-7.62L238.78-7.62L238.78-0.96L238.78-0.96Q238.78 16.19 225.09 16.19L225.09 16.19ZM259.33 0.83L259.33 0.83Q255.30 0.83 252.29-1.02L252.29-1.02L252.29-1.02Q249.28-2.88 247.62-6.24L247.62-6.24L247.62-6.24Q245.95-9.60 245.95-14.02L245.95-14.02L245.95-14.02Q245.95-18.62 247.81-22.14L247.81-22.14L247.81-22.14Q249.66-25.66 253.09-27.58L253.09-27.58L253.09-27.58Q256.51-29.50 260.99-29.50L260.99-29.50L260.99-29.50Q265.73-29.50 268.32-27.01L268.32-27.01L268.32-27.01Q270.91-24.51 270.91-20.99L270.91-20.99L270.91-20.99Q270.91-18.56 269.60-16.32L269.60-16.32L269.60-16.32Q268.29-14.08 265.76-12.67L265.76-12.67L265.76-12.67Q263.23-11.26 259.84-11.26L259.84-11.26L259.84-11.26Q257.92-11.26 255.68-11.94L255.68-11.94L255.68-11.94Q253.44-12.61 253.44-13.95L253.44-13.95L253.44-13.95Q253.44-14.46 253.70-14.85L253.70-14.85L253.70-14.85Q253.95-15.23 254.27-15.23L254.27-15.23L254.27-15.23Q254.46-15.23 255.46-14.88L255.46-14.88L255.46-14.88Q256.45-14.53 258.05-14.53L258.05-14.53L258.05-14.53Q261.57-14.53 263.49-16.45L263.49-16.45L263.49-16.45Q265.41-18.37 265.41-21.06L265.41-21.06L265.41-21.06Q265.41-23.36 263.90-25.02L263.90-25.02L263.90-25.02Q262.40-26.69 259.90-26.69L259.90-26.69L259.90-26.69Q256.13-26.69 254.05-23.39L254.05-23.39L254.05-23.39Q251.97-20.10 251.97-14.02L251.97-14.02L251.97-14.02Q251.97-8.83 254.18-5.92L254.18-5.92L254.18-5.92Q256.38-3.01 260.54-3.01L260.54-3.01L260.54-3.01Q265.66-3.01 268.99-6.34L268.99-6.34L268.99-6.34Q269.18-6.53 269.50-6.53L269.50-6.53L269.50-6.53Q270.02-6.53 270.56-6.02L270.56-6.02L270.56-6.02Q271.10-5.50 271.10-4.93L271.10-4.93L271.10-4.93Q271.10-4.74 270.98-4.58L270.98-4.58L270.98-4.58Q270.85-4.42 270.85-4.35L270.85-4.35L270.85-4.35Q268.67-1.79 265.70-0.48L265.70-0.48L265.70-0.48Q262.72 0.83 259.33 0.83L259.33 0.83ZM277.57 0L276.99-1.79L278.08-2.11L278.08-2.11Q279.62-2.37 280.10-3.30L280.10-3.30L280.10-3.30Q280.58-4.22 280.58-6.46L280.58-6.46L280.58-22.72L280.58-22.72Q280.58-23.42 280.32-23.71L280.32-23.71L280.32-23.71Q280.06-24 279.42-24L279.42-24L276.93-24L276.35-25.54L276.35-25.54Q278.02-27.07 280.19-28.03L280.19-28.03L280.19-28.03Q282.37-28.99 284.03-28.99L284.03-28.99L284.03-28.99Q284.86-28.99 285.38-28.48L285.38-28.48L285.38-28.48Q285.89-27.97 285.89-27.20L285.89-27.20L285.89-20.86L286.21-20.86L286.21-20.86Q287.23-24.77 289.31-27.14L289.31-27.14L289.31-27.14Q291.39-29.50 293.82-29.50L293.82-29.50L293.82-29.50Q296.26-29.50 297.82-27.94L297.82-27.94L297.82-27.94Q299.39-26.37 299.39-23.62L299.39-23.62L299.39-23.62Q299.39-21.44 297.79-19.97L297.79-19.97L297.79-19.97Q296.19-18.50 293.76-18.50L293.76-18.50L293.76-18.50Q292.61-18.50 292.61-19.07L292.61-19.07L292.61-19.07Q292.61-19.26 293.06-19.97L293.06-19.97L293.06-19.97Q293.50-20.67 293.82-21.38L293.82-21.38L293.82-21.38Q294.14-22.08 294.14-23.04L294.14-23.04L294.14-23.04Q294.14-24.13 293.63-24.74L293.63-24.74L293.63-24.74Q293.12-25.34 292.29-25.34L292.29-25.34L292.29-25.34Q290.94-25.34 289.47-23.68L289.47-23.68L289.47-23.68Q288-22.02 286.94-18.37L286.94-18.37L286.94-18.37Q285.89-14.72 285.89-9.09L285.89-9.09L285.89-9.09Q285.89-6.46 286.30-4.83L286.30-4.83L286.30-4.83Q286.72-3.20 287.74-1.79L287.74-1.79L288.45-0.90L287.74 0L277.57 0ZM310.14 0.83L310.14 0.83Q307.78 0.83 306.43-0.67L306.43-0.67L306.43-0.67Q305.09-2.18 305.09-4.80L305.09-4.80L305.09-25.22L300.03-25.22L300.03-25.22Q300.03-26.75 300.29-27.23L300.29-27.23L300.29-27.23Q300.54-27.71 301.44-27.97L301.44-27.97L301.44-27.97Q304.51-28.74 305.79-30.53L305.79-30.53L305.79-30.53Q307.07-32.32 307.71-35.26L307.71-35.26L307.71-35.26Q307.84-36.16 308.32-36.38L308.32-36.38L308.32-36.38Q308.80-36.61 310.46-36.61L310.46-36.61L310.46-28.80L317.95-28.80L317.95-28.80Q317.95-27.58 317.60-26.62L317.60-26.62L317.60-26.62Q317.25-25.66 316.67-25.22L316.67-25.22L310.46-25.22L310.46-6.46L310.46-6.46Q310.46-4.67 310.94-3.94L310.94-3.94L310.94-3.94Q311.42-3.20 312.64-3.20L312.64-3.20L312.64-3.20Q314.37-3.20 316.54-5.06L316.54-5.06L317.63-3.52L317.63-3.52Q316.16-1.60 314.05-0.38L314.05-0.38L314.05-0.38Q311.94 0.83 310.14 0.83L310.14 0.83ZM343.42 1.34L343.42 1.34Q342.14 0.58 340.67 0.29L340.67 0.29L340.67 0.29Q339.20 0 336.45 0L336.45 0L321.60 0L321.02-1.79L337.22-25.41L328.58-25.41L328.58-25.41Q326.34-25.41 325.47-24.93L325.47-24.93L325.47-24.93Q324.61-24.45 324.29-22.98L324.29-22.98L323.58-19.97L321.79-20.54L321.79-29.44L322.43-30.27L322.43-30.27Q323.71-29.38 325.18-29.09L325.18-29.09L325.18-29.09Q326.66-28.80 329.41-28.80L329.41-28.80L343.87-28.80L343.87-28.80Q344.96-27.78 344.96-26.30L344.96-26.30L343.42-25.34L328.19-3.33L337.22-3.33L337.22-3.33Q339.46-3.33 340.42-3.84L340.42-3.84L340.42-3.84Q341.38-4.35 341.63-5.82L341.63-5.82L342.27-8.83L344.13-8.26L344.13 0.70L343.42 1.34Z" fill="#63bcc7"></path></g></g><style>text {
  font-size: 64px;
  font-family: Arial Black;
  dominant-baseline: central;
  text-anchor: middle;
}</style></svg>