<?xml version="1.0" encoding="UTF-8" standalone="no" ?>
<!DOCTYPE svg PUBLIC "-//W3C//DTD SVG 1.1//EN" "http://www.w3.org/Graphics/SVG/1.1/DTD/svg11.dtd">
<svg xmlns="http://www.w3.org/2000/svg" xmlns:xlink="http://www.w3.org/1999/xlink" version="1.1" width="1200" height="460" viewBox="0 45 1200 460" xml:space="preserve">
<desc>Created with Fabric.js 5.2.4</desc>
<defs>
</defs>
<rect x="0" y="0" width="100%" height="100%" fill="transparent"></rect>
<g transform="matrix(1 0 0 1 1000 1000)" id="3fe3e08c-d0e1-4696-be0d-d5590730564b"  >
<rect style="stroke: none; stroke-width: 1; stroke-dasharray: none; stroke-linecap: butt; stroke-dashoffset: 0; stroke-linejoin: miter; stroke-miterlimit: 4; fill: rgb(255,255,255); fill-rule: nonzero; opacity: 1; visibility: hidden;" vector-effect="non-scaling-stroke"  x="-1000" y="-1000" rx="0" ry="0" width="2000" height="2000" />
</g>
<g transform="matrix(0 0 0 0 0 0)" id="8d237ee5-61f6-4410-8479-53829cd456c0"  >
</g>
<g transform="matrix(34.42 0 0 34.42 600 1377.59)"  >
<path style="stroke: rgb(0,0,0); stroke-width: 0; stroke-dasharray: none; stroke-linecap: butt; stroke-dashoffset: 0; stroke-linejoin: miter; stroke-miterlimit: 4; fill: rgb(99,188,199); fill-rule: nonzero; opacity: 1;" vector-effect="non-scaling-stroke"  transform=" translate(-175.36, 14.59)" d="M 3.33 0 L 2.56 -0.96 L 3.33 -1.98 L 3.33 -1.98 Q 4.8 -3.9 5.41 -6.02 L 5.41 -6.02 L 5.41 -6.02 Q 6.02 -8.13 6.02 -11.65 L 6.02 -11.65 L 6.02 -30.02 L 6.02 -30.02 Q 6.02 -33.41 5.41 -35.55 L 5.41 -35.55 L 5.41 -35.55 Q 4.8 -37.7 3.33 -39.62 L 3.33 -39.62 L 2.56 -40.7 L 3.33 -41.6 L 20.48 -41.6 L 20.48 -41.6 Q 23.1 -41.6 24.67 -41.89 L 24.67 -41.89 L 24.67 -41.89 Q 26.24 -42.18 27.2 -42.82 L 27.2 -42.82 L 28.16 -43.58 L 29.06 -42.82 L 29.06 -32.51 L 27.2 -31.81 L 26.75 -33.22 L 26.75 -33.22 Q 26.18 -35.39 25.54 -36.45 L 25.54 -36.45 L 25.54 -36.45 Q 24.9 -37.5 23.74 -37.95 L 23.74 -37.95 L 23.74 -37.95 Q 22.59 -38.4 20.48 -38.4 L 20.48 -38.4 L 15.36 -38.4 L 15.36 -38.4 Q 13.12 -38.4 12.42 -37.5 L 12.42 -37.5 L 12.42 -37.5 Q 11.71 -36.61 11.71 -33.92 L 11.71 -33.92 L 11.71 -22.21 L 18.56 -22.21 L 18.56 -22.21 Q 19.97 -22.21 21.02 -22.78 L 21.02 -22.78 L 21.02 -22.78 Q 22.08 -23.36 23.04 -24.9 L 23.04 -24.9 L 23.55 -25.54 L 24.77 -24.9 L 24.77 -14.91 L 22.72 -14.27 L 22.46 -15.55 L 22.46 -15.55 Q 21.89 -17.54 20.54 -18.24 L 20.54 -18.24 L 20.54 -18.24 Q 19.2 -18.94 16.06 -18.94 L 16.06 -18.94 L 11.71 -18.94 L 11.71 -7.68 L 11.71 -7.68 Q 11.71 -4.99 12.42 -4 L 12.42 -4 L 12.42 -4 Q 13.12 -3.01 15.36 -2.3 L 15.36 -2.3 L 16.77 -1.98 L 16.06 0 L 3.33 0 Z M 40.51 -34.37 L 40.51 -34.37 Q 39.55 -34.37 38.27 -35.71 L 38.27 -35.71 L 38.27 -35.71 Q 36.99 -37.06 36.99 -38.14 L 36.99 -38.14 L 36.99 -38.14 Q 36.99 -39.23 38.24 -40.58 L 38.24 -40.58 L 38.24 -40.58 Q 39.49 -41.92 40.51 -41.92 L 40.51 -41.92 L 40.51 -41.92 Q 41.6 -41.92 42.88 -40.58 L 42.88 -40.58 L 42.88 -40.58 Q 44.16 -39.23 44.16 -38.14 L 44.16 -38.14 L 44.16 -38.14 Q 44.16 -37.06 42.88 -35.71 L 42.88 -35.71 L 42.88 -35.71 Q 41.6 -34.37 40.51 -34.37 L 40.51 -34.37 Z M 42.43 0.83 L 42.43 0.83 Q 40.06 0.83 39.01 -0.61 L 39.01 -0.61 L 39.01 -0.61 Q 37.95 -2.05 37.95 -5.31 L 37.95 -5.31 L 37.95 -23.23 L 37.95 -23.23 Q 37.95 -24 37.7 -24.32 L 37.7 -24.32 L 37.7 -24.32 Q 37.44 -24.64 36.8 -24.64 L 36.8 -24.64 L 34.18 -24.64 L 33.73 -26.05 L 33.73 -26.05 Q 35.39 -27.58 37.54 -28.54 L 37.54 -28.54 L 37.54 -28.54 Q 39.68 -29.5 41.28 -29.5 L 41.28 -29.5 L 41.28 -29.5 Q 42.11 -29.5 42.66 -29.02 L 42.66 -29.02 L 42.66 -29.02 Q 43.2 -28.54 43.2 -27.78 L 43.2 -27.78 L 43.2 -5.12 L 43.2 -5.12 Q 43.2 -3.14 44.93 -3.14 L 44.93 -3.14 L 44.93 -3.14 Q 46.27 -3.14 47.87 -4.35 L 47.87 -4.35 L 48.96 -2.88 L 48.96 -2.88 Q 47.36 -1.22 45.6 -0.19 L 45.6 -0.19 L 45.6 -0.19 Q 43.84 0.83 42.43 0.83 L 42.43 0.83 Z M 59.9 0.83 L 59.9 0.83 Q 57.47 0.83 56.42 -0.61 L 56.42 -0.61 L 56.42 -0.61 Q 55.36 -2.05 55.36 -5.31 L 55.36 -5.31 L 55.36 -39.1 L 55.36 -39.1 Q 55.36 -39.81 55.1 -40.1 L 55.1 -40.1 L 55.1 -40.1 Q 54.85 -40.38 54.21 -40.38 L 54.21 -40.38 L 51.71 -40.38 L 51.14 -41.86 L 51.14 -41.86 Q 52.8 -43.39 54.98 -44.38 L 54.98 -44.38 L 54.98 -44.38 Q 57.15 -45.38 58.88 -45.38 L 58.88 -45.38 L 58.88 -45.38 Q 59.71 -45.38 60.22 -44.86 L 60.22 -44.86 L 60.22 -44.86 Q 60.74 -44.35 60.74 -43.52 L 60.74 -43.52 L 60.61 -5.12 L 60.61 -5.12 Q 60.61 -4.16 61.06 -3.65 L 61.06 -3.65 L 61.06 -3.65 Q 61.5 -3.14 62.34 -3.14 L 62.34 -3.14 L 62.34 -3.14 Q 63.94 -3.14 65.22 -4.35 L 65.22 -4.35 L 66.37 -2.88 L 66.37 -2.88 Q 64.9 -1.22 63.1 -0.19 L 63.1 -0.19 L 63.1 -0.19 Q 61.31 0.83 59.9 0.83 L 59.9 0.83 Z M 114.05 0.83 L 114.05 0.83 Q 111.68 0.83 110.62 -0.61 L 110.62 -0.61 L 110.62 -0.61 Q 109.57 -2.05 109.57 -5.31 L 109.57 -5.31 L 109.57 -19.14 L 109.57 -19.14 Q 109.57 -25.09 105.28 -25.09 L 105.28 -25.09 L 105.28 -25.09 Q 102.91 -25.09 101.02 -23.2 L 101.02 -23.2 L 101.02 -23.2 Q 99.14 -21.31 98.05 -17.89 L 98.05 -17.89 L 98.05 -17.89 Q 96.96 -14.46 96.9 -9.98 L 96.9 -9.98 L 96.9 -9.28 L 96.9 -9.28 Q 96.9 -6.34 97.38 -4.54 L 97.38 -4.54 L 97.38 -4.54 Q 97.86 -2.75 99.39 -0.9 L 99.39 -0.9 L 98.69 0 L 91.71 0 L 91.71 -19.14 L 91.71 -19.14 Q 91.71 -22.08 90.59 -23.58 L 90.59 -23.58 L 90.59 -23.58 Q 89.47 -25.09 87.3 -25.09 L 87.3 -25.09 L 87.3 -25.09 Q 84.8 -25.09 82.91 -23.1 L 82.91 -23.1 L 82.91 -23.1 Q 81.02 -21.12 80 -17.54 L 80 -17.54 L 80 -17.54 Q 78.98 -13.95 78.98 -9.28 L 78.98 -9.28 L 78.98 -9.28 Q 78.98 -6.59 79.39 -4.93 L 79.39 -4.93 L 79.39 -4.93 Q 79.81 -3.26 80.83 -1.79 L 80.83 -1.79 L 81.54 -0.9 L 80.83 0 L 70.66 0 L 70.08 -1.79 L 71.17 -2.11 L 71.17 -2.11 Q 72.7 -2.37 73.18 -3.3 L 73.18 -3.3 L 73.18 -3.3 Q 73.66 -4.22 73.66 -6.46 L 73.66 -6.46 L 73.66 -22.72 L 73.66 -22.72 Q 73.66 -23.42 73.41 -23.71 L 73.41 -23.71 L 73.41 -23.71 Q 73.15 -24 72.51 -24 L 72.51 -24 L 70.02 -24 L 69.44 -25.54 L 69.44 -25.54 Q 71.1 -27.07 73.28 -28.03 L 73.28 -28.03 L 73.28 -28.03 Q 75.46 -28.99 77.12 -28.99 L 77.12 -28.99 L 77.12 -28.99 Q 77.95 -28.99 78.46 -28.48 L 78.46 -28.48 L 78.46 -28.48 Q 78.98 -27.97 78.98 -27.2 L 78.98 -27.2 L 78.98 -20.86 L 78.98 -20.86 Q 80.45 -24.7 83.36 -27.1 L 83.36 -27.1 L 83.36 -27.1 Q 86.27 -29.5 89.47 -29.5 L 89.47 -29.5 L 89.47 -29.5 Q 93.06 -29.5 94.85 -27.42 L 94.85 -27.42 L 94.85 -27.42 Q 96.64 -25.34 96.9 -20.86 L 96.9 -20.86 L 96.9 -20.86 Q 98.37 -24.64 101.31 -27.07 L 101.31 -27.07 L 101.31 -27.07 Q 104.26 -29.5 107.39 -29.5 L 107.39 -29.5 L 107.39 -29.5 Q 111.3 -29.5 113.06 -27.01 L 113.06 -27.01 L 113.06 -27.01 Q 114.82 -24.51 114.82 -19.14 L 114.82 -19.14 L 114.82 -5.12 L 114.82 -5.12 Q 114.82 -3.14 116.48 -3.14 L 116.48 -3.14 L 116.48 -3.14 Q 117.95 -3.14 119.36 -4.35 L 119.36 -4.35 L 120.51 -2.88 L 120.51 -2.88 Q 118.98 -1.15 117.25 -0.16 L 117.25 -0.16 L 117.25 -0.16 Q 115.52 0.83 114.05 0.83 L 114.05 0.83 Z M 141.25 0 L 140.48 -1.98 L 141.82 -2.3 L 141.82 -2.3 Q 144.19 -3.01 145.22 -4 L 145.22 -4 L 145.22 -4 Q 146.24 -4.99 147.14 -7.68 L 147.14 -7.68 L 156.22 -33.92 L 156.22 -33.92 Q 156.86 -35.97 156.86 -36.74 L 156.86 -36.74 L 156.86 -36.74 Q 156.86 -37.82 156.26 -38.43 L 156.26 -38.43 L 156.26 -38.43 Q 155.65 -39.04 154.3 -39.3 L 154.3 -39.3 L 152.96 -39.62 L 153.66 -41.6 L 164.8 -41.6 L 176.51 -8.06 L 176.51 -8.06 Q 177.47 -5.31 178.53 -3.97 L 178.53 -3.97 L 178.53 -3.97 Q 179.58 -2.62 181.76 -0.96 L 181.76 -0.96 L 180.99 0 L 167.87 0 L 167.23 -1.98 L 168.64 -2.3 L 168.64 -2.3 Q 169.98 -2.62 170.59 -3.23 L 170.59 -3.23 L 170.59 -3.23 Q 171.2 -3.84 171.2 -4.93 L 171.2 -4.93 L 171.2 -4.93 Q 171.2 -5.57 170.91 -6.43 L 170.91 -6.43 L 170.91 -6.43 Q 170.62 -7.3 170.5 -7.68 L 170.5 -7.68 L 167.74 -15.81 L 154.37 -15.81 L 152.96 -11.58 L 152.96 -11.58 Q 151.68 -7.62 151.68 -5.5 L 151.68 -5.5 L 151.68 -5.5 Q 151.68 -3.39 152.51 -1.98 L 152.51 -1.98 L 152.96 -0.96 L 151.87 0 L 141.25 0 Z M 161.02 -35.71 L 155.65 -19.46 L 166.59 -19.46 L 161.02 -35.71 Z M 185.86 0 L 185.28 -1.79 L 186.37 -2.11 L 186.37 -2.11 Q 187.9 -2.37 188.38 -3.3 L 188.38 -3.3 L 188.38 -3.3 Q 188.86 -4.22 188.86 -6.46 L 188.86 -6.46 L 188.86 -22.72 L 188.86 -22.72 Q 188.86 -23.42 188.61 -23.71 L 188.61 -23.71 L 188.61 -23.71 Q 188.35 -24 187.71 -24 L 187.71 -24 L 185.22 -24 L 184.64 -25.54 L 184.64 -25.54 Q 186.3 -27.07 188.48 -28.03 L 188.48 -28.03 L 188.48 -28.03 Q 190.66 -28.99 192.32 -28.99 L 192.32 -28.99 L 192.32 -28.99 Q 193.15 -28.99 193.66 -28.48 L 193.66 -28.48 L 193.66 -28.48 Q 194.18 -27.97 194.18 -27.2 L 194.18 -27.2 L 194.18 -20.86 L 194.5 -20.86 L 194.5 -20.86 Q 195.52 -24.77 197.6 -27.14 L 197.6 -27.14 L 197.6 -27.14 Q 199.68 -29.5 202.11 -29.5 L 202.11 -29.5 L 202.11 -29.5 Q 204.54 -29.5 206.11 -27.94 L 206.11 -27.94 L 206.11 -27.94 Q 207.68 -26.37 207.68 -23.62 L 207.68 -23.62 L 207.68 -23.62 Q 207.68 -21.44 206.08 -19.97 L 206.08 -19.97 L 206.08 -19.97 Q 204.48 -18.5 202.05 -18.5 L 202.05 -18.5 L 202.05 -18.5 Q 200.9 -18.5 200.9 -19.07 L 200.9 -19.07 L 200.9 -19.07 Q 200.9 -19.26 201.34 -19.97 L 201.34 -19.97 L 201.34 -19.97 Q 201.79 -20.67 202.11 -21.38 L 202.11 -21.38 L 202.11 -21.38 Q 202.43 -22.08 202.43 -23.04 L 202.43 -23.04 L 202.43 -23.04 Q 202.43 -24.13 201.92 -24.74 L 201.92 -24.74 L 201.92 -24.74 Q 201.41 -25.34 200.58 -25.34 L 200.58 -25.34 L 200.58 -25.34 Q 199.23 -25.34 197.76 -23.68 L 197.76 -23.68 L 197.76 -23.68 Q 196.29 -22.02 195.23 -18.37 L 195.23 -18.37 L 195.23 -18.37 Q 194.18 -14.72 194.18 -9.09 L 194.18 -9.09 L 194.18 -9.09 Q 194.18 -6.46 194.59 -4.83 L 194.59 -4.83 L 194.59 -4.83 Q 195.01 -3.2 196.03 -1.79 L 196.03 -1.79 L 196.74 -0.9 L 196.03 0 L 185.86 0 Z M 218.43 0.83 L 218.43 0.83 Q 216.06 0.83 214.72 -0.67 L 214.72 -0.67 L 214.72 -0.67 Q 213.38 -2.18 213.38 -4.8 L 213.38 -4.8 L 213.38 -25.22 L 208.32 -25.22 L 208.32 -25.22 Q 208.32 -26.75 208.58 -27.23 L 208.58 -27.23 L 208.58 -27.23 Q 208.83 -27.71 209.73 -27.97 L 209.73 -27.97 L 209.73 -27.97 Q 212.8 -28.74 214.08 -30.53 L 214.08 -30.53 L 214.08 -30.53 Q 215.36 -32.32 216 -35.26 L 216 -35.26 L 216 -35.26 Q 216.13 -36.16 216.61 -36.38 L 216.61 -36.38 L 216.61 -36.38 Q 217.09 -36.61 218.75 -36.61 L 218.75 -36.61 L 218.75 -28.8 L 226.24 -28.8 L 226.24 -28.8 Q 226.24 -27.58 225.89 -26.62 L 225.89 -26.62 L 225.89 -26.62 Q 225.54 -25.66 224.96 -25.22 L 224.96 -25.22 L 218.75 -25.22 L 218.75 -6.46 L 218.75 -6.46 Q 218.75 -4.67 219.23 -3.94 L 219.23 -3.94 L 219.23 -3.94 Q 219.71 -3.2 220.93 -3.2 L 220.93 -3.2 L 220.93 -3.2 Q 222.66 -3.2 224.83 -5.06 L 224.83 -5.06 L 225.92 -3.52 L 225.92 -3.52 Q 224.45 -1.6 222.34 -0.38 L 222.34 -0.38 L 222.34 -0.38 Q 220.22 0.83 218.43 0.83 L 218.43 0.83 Z M 236.22 -34.37 L 236.22 -34.37 Q 235.26 -34.37 233.98 -35.71 L 233.98 -35.71 L 233.98 -35.71 Q 232.7 -37.06 232.7 -38.14 L 232.7 -38.14 L 232.7 -38.14 Q 232.7 -39.23 233.95 -40.58 L 233.95 -40.58 L 233.95 -40.58 Q 235.2 -41.92 236.22 -41.92 L 236.22 -41.92 L 236.22 -41.92 Q 237.31 -41.92 238.59 -40.58 L 238.59 -40.58 L 238.59 -40.58 Q 239.87 -39.23 239.87 -38.14 L 239.87 -38.14 L 239.87 -38.14 Q 239.87 -37.06 238.59 -35.71 L 238.59 -35.71 L 238.59 -35.71 Q 237.31 -34.37 236.22 -34.37 L 236.22 -34.37 Z M 238.14 0.83 L 238.14 0.83 Q 235.78 0.83 234.72 -0.61 L 234.72 -0.61 L 234.72 -0.61 Q 233.66 -2.05 233.66 -5.31 L 233.66 -5.31 L 233.66 -23.23 L 233.66 -23.23 Q 233.66 -24 233.41 -24.32 L 233.41 -24.32 L 233.41 -24.32 Q 233.15 -24.64 232.51 -24.64 L 232.51 -24.64 L 229.89 -24.64 L 229.44 -26.05 L 229.44 -26.05 Q 231.1 -27.58 233.25 -28.54 L 233.25 -28.54 L 233.25 -28.54 Q 235.39 -29.5 236.99 -29.5 L 236.99 -29.5 L 236.99 -29.5 Q 237.82 -29.5 238.37 -29.02 L 238.37 -29.02 L 238.37 -29.02 Q 238.91 -28.54 238.91 -27.78 L 238.91 -27.78 L 238.91 -5.12 L 238.91 -5.12 Q 238.91 -3.14 240.64 -3.14 L 240.64 -3.14 L 240.64 -3.14 Q 241.98 -3.14 243.58 -4.35 L 243.58 -4.35 L 244.67 -2.88 L 244.67 -2.88 Q 243.07 -1.22 241.31 -0.19 L 241.31 -0.19 L 241.31 -0.19 Q 239.55 0.83 238.14 0.83 L 238.14 0.83 Z M 258.69 0.83 L 258.69 0.83 Q 254.34 0.83 251.46 -1.18 L 251.46 -1.18 L 251.46 -1.18 Q 248.58 -3.2 248.58 -6.46 L 248.58 -6.46 L 248.58 -6.46 Q 248.58 -8.38 249.95 -9.7 L 249.95 -9.7 L 249.95 -9.7 Q 251.33 -11.01 253.44 -11.01 L 253.44 -11.01 L 253.44 -11.01 Q 253.89 -11.01 254.27 -10.82 L 254.27 -10.82 L 254.27 -10.82 Q 254.66 -10.62 254.66 -10.3 L 254.66 -10.3 L 254.66 -10.3 Q 254.66 -10.11 254.27 -9.18 L 254.27 -9.18 L 254.27 -9.18 Q 253.89 -8.26 253.89 -6.98 L 253.89 -6.98 L 253.89 -6.98 Q 253.89 -4.61 255.58 -3.33 L 255.58 -3.33 L 255.58 -3.33 Q 257.28 -2.05 259.39 -2.05 L 259.39 -2.05 L 259.39 -2.05 Q 261.82 -2.05 263.36 -3.33 L 263.36 -3.33 L 263.36 -3.33 Q 264.9 -4.61 264.9 -6.66 L 264.9 -6.66 L 264.9 -6.66 Q 264.9 -8.51 263.26 -9.73 L 263.26 -9.73 L 263.26 -9.73 Q 261.63 -10.94 258.56 -12.22 L 258.56 -12.22 L 258.56 -12.22 Q 255.74 -13.44 253.86 -14.53 L 253.86 -14.53 L 253.86 -14.53 Q 251.97 -15.62 250.62 -17.41 L 250.62 -17.41 L 250.62 -17.41 Q 249.28 -19.2 249.28 -21.76 L 249.28 -21.76 L 249.28 -21.76 Q 249.28 -25.15 252.29 -27.33 L 252.29 -27.33 L 252.29 -27.33 Q 255.3 -29.5 259.84 -29.5 L 259.84 -29.5 L 259.84 -29.5 Q 264 -29.5 266.69 -27.94 L 266.69 -27.94 L 266.69 -27.94 Q 269.38 -26.37 269.38 -23.62 L 269.38 -23.62 L 269.38 -23.62 Q 269.38 -21.38 268.03 -19.97 L 268.03 -19.97 L 268.03 -19.97 Q 266.69 -18.56 264.51 -18.56 L 264.51 -18.56 L 264.51 -18.56 Q 263.23 -18.56 263.23 -19.39 L 263.23 -19.39 L 263.23 -19.39 Q 263.23 -19.65 263.71 -20.54 L 263.71 -20.54 L 263.71 -20.54 Q 264.19 -21.44 264.19 -22.59 L 264.19 -22.59 L 264.19 -22.59 Q 264.19 -24.64 262.72 -25.7 L 262.72 -25.7 L 262.72 -25.7 Q 261.25 -26.75 259.39 -26.75 L 259.39 -26.75 L 259.39 -26.75 Q 257.02 -26.75 255.65 -25.6 L 255.65 -25.6 L 255.65 -25.6 Q 254.27 -24.45 254.27 -22.59 L 254.27 -22.59 L 254.27 -22.59 Q 254.27 -20.42 256.06 -19.04 L 256.06 -19.04 L 256.06 -19.04 Q 257.86 -17.66 261.12 -16.45 L 261.12 -16.45 L 261.12 -16.45 Q 263.94 -15.23 265.79 -14.21 L 265.79 -14.21 L 265.79 -14.21 Q 267.65 -13.18 268.93 -11.62 L 268.93 -11.62 L 268.93 -11.62 Q 270.21 -10.05 270.21 -7.94 L 270.21 -7.94 L 270.21 -7.94 Q 270.21 -3.97 267.04 -1.57 L 267.04 -1.57 L 267.04 -1.57 Q 263.87 0.83 258.69 0.83 L 258.69 0.83 Z M 284.1 0.83 L 284.1 0.83 Q 281.73 0.83 280.38 -0.67 L 280.38 -0.67 L 280.38 -0.67 Q 279.04 -2.18 279.04 -4.8 L 279.04 -4.8 L 279.04 -25.22 L 273.98 -25.22 L 273.98 -25.22 Q 273.98 -26.75 274.24 -27.23 L 274.24 -27.23 L 274.24 -27.23 Q 274.5 -27.71 275.39 -27.97 L 275.39 -27.97 L 275.39 -27.97 Q 278.46 -28.74 279.74 -30.53 L 279.74 -30.53 L 279.74 -30.53 Q 281.02 -32.32 281.66 -35.26 L 281.66 -35.26 L 281.66 -35.26 Q 281.79 -36.16 282.27 -36.38 L 282.27 -36.38 L 282.27 -36.38 Q 282.75 -36.61 284.42 -36.61 L 284.42 -36.61 L 284.42 -28.8 L 291.9 -28.8 L 291.9 -28.8 Q 291.9 -27.58 291.55 -26.62 L 291.55 -26.62 L 291.55 -26.62 Q 291.2 -25.66 290.62 -25.22 L 290.62 -25.22 L 284.42 -25.22 L 284.42 -6.46 L 284.42 -6.46 Q 284.42 -4.67 284.9 -3.94 L 284.9 -3.94 L 284.9 -3.94 Q 285.38 -3.2 286.59 -3.2 L 286.59 -3.2 L 286.59 -3.2 Q 288.32 -3.2 290.5 -5.06 L 290.5 -5.06 L 291.58 -3.52 L 291.58 -3.52 Q 290.11 -1.6 288 -0.38 L 288 -0.38 L 288 -0.38 Q 285.89 0.83 284.1 0.83 L 284.1 0.83 Z M 296.58 0 L 296 -1.79 L 297.09 -2.11 L 297.09 -2.11 Q 298.62 -2.37 299.1 -3.3 L 299.1 -3.3 L 299.1 -3.3 Q 299.58 -4.22 299.58 -6.46 L 299.58 -6.46 L 299.58 -22.72 L 299.58 -22.72 Q 299.58 -23.42 299.33 -23.71 L 299.33 -23.71 L 299.33 -23.71 Q 299.07 -24 298.43 -24 L 298.43 -24 L 295.94 -24 L 295.36 -25.54 L 295.36 -25.54 Q 297.02 -27.07 299.2 -28.03 L 299.2 -28.03 L 299.2 -28.03 Q 301.38 -28.99 303.04 -28.99 L 303.04 -28.99 L 303.04 -28.99 Q 303.87 -28.99 304.38 -28.48 L 304.38 -28.48 L 304.38 -28.48 Q 304.9 -27.97 304.9 -27.2 L 304.9 -27.2 L 304.9 -20.86 L 305.22 -20.86 L 305.22 -20.86 Q 306.24 -24.77 308.32 -27.14 L 308.32 -27.14 L 308.32 -27.14 Q 310.4 -29.5 312.83 -29.5 L 312.83 -29.5 L 312.83 -29.5 Q 315.26 -29.5 316.83 -27.94 L 316.83 -27.94 L 316.83 -27.94 Q 318.4 -26.37 318.4 -23.62 L 318.4 -23.62 L 318.4 -23.62 Q 318.4 -21.44 316.8 -19.97 L 316.8 -19.97 L 316.8 -19.97 Q 315.2 -18.5 312.77 -18.5 L 312.77 -18.5 L 312.77 -18.5 Q 311.62 -18.5 311.62 -19.07 L 311.62 -19.07 L 311.62 -19.07 Q 311.62 -19.26 312.06 -19.97 L 312.06 -19.97 L 312.06 -19.97 Q 312.51 -20.67 312.83 -21.38 L 312.83 -21.38 L 312.83 -21.38 Q 313.15 -22.08 313.15 -23.04 L 313.15 -23.04 L 313.15 -23.04 Q 313.15 -24.13 312.64 -24.74 L 312.64 -24.74 L 312.64 -24.74 Q 312.13 -25.34 311.3 -25.34 L 311.3 -25.34 L 311.3 -25.34 Q 309.95 -25.34 308.48 -23.68 L 308.48 -23.68 L 308.48 -23.68 Q 307.01 -22.02 305.95 -18.37 L 305.95 -18.37 L 305.95 -18.37 Q 304.9 -14.72 304.9 -9.09 L 304.9 -9.09 L 304.9 -9.09 Q 304.9 -6.46 305.31 -4.83 L 305.31 -4.83 L 305.31 -4.83 Q 305.73 -3.2 306.75 -1.79 L 306.75 -1.79 L 307.46 -0.9 L 306.75 0 L 296.58 0 Z M 335.3 16.19 L 335.3 16.19 Q 332.1 16.19 329.82 15.01 L 329.82 15.01 L 329.82 15.01 Q 327.55 13.82 326.43 11.9 L 326.43 11.9 L 326.43 11.9 Q 325.31 9.98 325.31 7.87 L 325.31 7.87 L 325.31 7.87 Q 325.31 4.93 327.3 2.88 L 327.3 2.88 L 327.3 2.88 Q 329.28 0.83 332.74 0.83 L 332.74 0.83 L 332.74 0.83 Q 333.25 0.83 333.5 0.99 L 333.5 0.99 L 333.5 0.99 Q 333.76 1.15 333.76 1.41 L 333.76 1.41 L 333.76 1.41 Q 333.76 1.66 332.96 2.53 L 332.96 2.53 L 332.96 2.53 Q 332.16 3.39 331.55 4.61 L 331.55 4.61 L 331.55 4.61 Q 330.94 5.82 330.94 7.68 L 330.94 7.68 L 330.94 7.68 Q 330.94 9.98 332.32 11.55 L 332.32 11.55 L 332.32 11.55 Q 333.7 13.12 336 13.12 L 336 13.12 L 336 13.12 Q 339.58 13.12 341.31 10.14 L 341.31 10.14 L 341.31 10.14 Q 343.04 7.17 343.04 2.18 L 343.04 2.18 L 343.04 -6.4 L 343.04 -6.4 Q 341.63 -3.84 338.98 -2.37 L 338.98 -2.37 L 338.98 -2.37 Q 336.32 -0.9 333.06 -0.9 L 333.06 -0.9 L 333.06 -0.9 Q 328.96 -0.9 326.69 -3.42 L 326.69 -3.42 L 326.69 -3.42 Q 324.42 -5.95 324.42 -10.5 L 324.42 -10.5 L 324.42 -23.3 L 324.42 -23.3 Q 324.42 -24.06 324.16 -24.38 L 324.16 -24.38 L 324.16 -24.38 Q 323.9 -24.7 323.26 -24.7 L 323.26 -24.7 L 320.64 -24.7 L 320.19 -26.11 L 320.19 -26.11 Q 321.66 -27.65 323.81 -28.61 L 323.81 -28.61 L 323.81 -28.61 Q 325.95 -29.57 327.74 -29.57 L 327.74 -29.57 L 327.74 -29.57 Q 328.58 -29.57 329.12 -29.09 L 329.12 -29.09 L 329.12 -29.09 Q 329.66 -28.61 329.66 -27.84 L 329.66 -27.84 L 329.66 -11.84 L 329.66 -11.84 Q 329.66 -8.38 331.07 -6.59 L 331.07 -6.59 L 331.07 -6.59 Q 332.48 -4.8 335.1 -4.8 L 335.1 -4.8 L 335.1 -4.8 Q 339.01 -4.8 341.18 -7.68 L 341.18 -7.68 L 341.18 -7.68 Q 343.36 -10.56 343.36 -15.81 L 343.36 -15.81 L 343.36 -15.81 Q 343.36 -20.61 342.98 -22.91 L 342.98 -22.91 L 342.98 -22.91 Q 342.59 -25.22 341.06 -27.14 L 341.06 -27.14 L 340.42 -28.03 L 341.06 -28.86 L 348.16 -29.57 L 348.16 1.28 L 348.16 1.28 Q 348.16 8.38 344.7 12.29 L 344.7 12.29 L 344.7 12.29 Q 341.25 16.19 335.3 16.19 L 335.3 16.19 Z" stroke-linecap="round" />
</g>
<g transform="matrix(34.42 0 0 34.42 584.52 -660.06)"  >
<path style="stroke: rgb(0,0,0); stroke-width: 0; stroke-dasharray: none; stroke-linecap: butt; stroke-dashoffset: 0; stroke-linejoin: miter; stroke-miterlimit: 4; fill: rgb(99,188,199); fill-rule: nonzero; opacity: 1;" vector-effect="non-scaling-stroke"  transform=" translate(-173.47, 13.12)" d="M 2.69 0 L 1.98 -1.98 L 3.33 -2.3 L 3.33 -2.3 Q 5.57 -3.01 6.27 -4 L 6.27 -4 L 6.27 -4 Q 6.98 -4.99 6.98 -7.68 L 6.98 -7.68 L 6.98 -33.92 L 6.98 -33.92 Q 6.98 -36.61 6.24 -37.66 L 6.24 -37.66 L 6.24 -37.66 Q 5.5 -38.72 3.33 -39.3 L 3.33 -39.3 L 1.98 -39.62 L 2.69 -41.6 L 12.03 -41.6 L 34.18 -8.77 L 34.18 -33.92 L 34.18 -33.92 Q 34.18 -36.54 33.41 -37.63 L 33.41 -37.63 L 33.41 -37.63 Q 32.64 -38.72 30.46 -39.3 L 30.46 -39.3 L 29.06 -39.62 L 29.89 -41.6 L 40.77 -41.6 L 41.6 -40.7 L 40.77 -39.62 L 40.77 -39.62 Q 39.36 -37.76 38.78 -35.62 L 38.78 -35.62 L 38.78 -35.62 Q 38.21 -33.47 38.21 -30.02 L 38.21 -30.02 L 38.21 -5.12 L 38.21 -5.12 Q 38.21 -3.33 39.04 -1.98 L 39.04 -1.98 L 39.74 -0.96 L 39.04 0 L 33.22 0 L 11.14 -32.83 L 11.14 -11.65 L 11.14 -11.65 Q 11.14 -8.06 11.68 -5.95 L 11.68 -5.95 L 11.68 -5.95 Q 12.22 -3.84 13.7 -1.98 L 13.7 -1.98 L 14.46 -0.96 L 13.7 0 L 2.69 0 Z M 55.68 0.83 L 55.68 0.83 Q 52.86 0.83 50.46 -0.8 L 50.46 -0.8 L 50.46 -0.8 Q 48.06 -2.43 46.62 -5.6 L 46.62 -5.6 L 46.62 -5.6 Q 45.18 -8.77 45.18 -13.31 L 45.18 -13.31 L 45.18 -13.31 Q 45.18 -20.8 49.25 -25.15 L 49.25 -25.15 L 49.25 -25.15 Q 53.31 -29.5 60.22 -29.5 L 60.22 -29.5 L 60.22 -29.5 Q 62.53 -29.5 66.5 -28.8 L 66.5 -28.8 L 66.5 -28.8 Q 69.44 -28.29 71.81 -28.1 L 71.81 -28.1 L 72.58 -27.39 L 71.74 -26.3 L 71.74 -26.3 Q 71.3 -25.54 71.14 -25.12 L 71.14 -25.12 L 71.14 -25.12 Q 70.98 -24.7 70.98 -24 L 70.98 -24 L 70.98 -5.12 L 70.98 -5.12 Q 70.98 -3.33 72.83 -3.33 L 72.83 -3.33 L 72.83 -3.33 Q 74.24 -3.33 75.71 -4.35 L 75.71 -4.35 L 76.8 -2.88 L 76.8 -2.88 Q 75.26 -1.15 73.54 -0.16 L 73.54 -0.16 L 73.54 -0.16 Q 71.81 0.83 70.4 0.83 L 70.4 0.83 L 70.4 0.83 Q 67.97 0.83 66.88 -0.61 L 66.88 -0.61 L 66.88 -0.61 Q 65.79 -2.05 65.79 -5.31 L 65.79 -5.31 L 65.79 -5.31 Q 63.49 -1.92 61.02 -0.54 L 61.02 -0.54 L 61.02 -0.54 Q 58.56 0.83 55.68 0.83 L 55.68 0.83 Z M 57.92 -3.71 L 57.92 -3.71 Q 62.78 -3.71 65.79 -8.96 L 65.79 -8.96 L 65.79 -24.64 L 65.79 -24.64 Q 63.3 -26.3 60.16 -26.3 L 60.16 -26.3 L 60.16 -26.3 Q 56 -26.3 53.66 -23.2 L 53.66 -23.2 L 53.66 -23.2 Q 51.33 -20.1 51.33 -14.4 L 51.33 -14.4 L 51.33 -14.4 Q 51.33 -8.9 53.22 -6.3 L 53.22 -6.3 L 53.22 -6.3 Q 55.1 -3.71 57.92 -3.71 L 57.92 -3.71 Z M 94.34 0.83 L 94.34 0.83 Q 87.81 0.83 83.97 -3.3 L 83.97 -3.3 L 83.97 -3.3 Q 80.13 -7.42 80.13 -14.4 L 80.13 -14.4 L 80.13 -14.4 Q 80.13 -21.38 83.97 -25.44 L 83.97 -25.44 L 83.97 -25.44 Q 87.81 -29.5 94.34 -29.5 L 94.34 -29.5 L 94.34 -29.5 Q 98.62 -29.5 101.82 -27.65 L 101.82 -27.65 L 101.82 -27.65 Q 105.02 -25.79 106.75 -22.4 L 106.75 -22.4 L 106.75 -22.4 Q 108.48 -19.01 108.48 -14.4 L 108.48 -14.4 L 108.48 -14.4 Q 108.48 -9.79 106.72 -6.34 L 106.72 -6.34 L 106.72 -6.34 Q 104.96 -2.88 101.76 -1.02 L 101.76 -1.02 L 101.76 -1.02 Q 98.56 0.83 94.34 0.83 L 94.34 0.83 Z M 94.21 -2.3 L 94.21 -2.3 Q 97.86 -2.3 100.13 -5.6 L 100.13 -5.6 L 100.13 -5.6 Q 102.4 -8.9 102.4 -14.27 L 102.4 -14.27 L 102.4 -14.27 Q 102.4 -17.02 101.63 -19.81 L 101.63 -19.81 L 101.63 -19.81 Q 100.86 -22.59 99.1 -24.54 L 99.1 -24.54 L 99.1 -24.54 Q 97.34 -26.5 94.53 -26.5 L 94.53 -26.5 L 94.53 -26.5 Q 90.75 -26.5 88.48 -23.17 L 88.48 -23.17 L 88.48 -23.17 Q 86.21 -19.84 86.21 -14.34 L 86.21 -14.34 L 86.21 -14.34 Q 86.21 -8.83 88.35 -5.57 L 88.35 -5.57 L 88.35 -5.57 Q 90.5 -2.3 94.21 -2.3 L 94.21 -2.3 Z M 157.95 0.83 L 157.95 0.83 Q 155.58 0.83 154.53 -0.61 L 154.53 -0.61 L 154.53 -0.61 Q 153.47 -2.05 153.47 -5.31 L 153.47 -5.31 L 153.47 -19.14 L 153.47 -19.14 Q 153.47 -25.09 149.18 -25.09 L 149.18 -25.09 L 149.18 -25.09 Q 146.82 -25.09 144.93 -23.2 L 144.93 -23.2 L 144.93 -23.2 Q 143.04 -21.31 141.95 -17.89 L 141.95 -17.89 L 141.95 -17.89 Q 140.86 -14.46 140.8 -9.98 L 140.8 -9.98 L 140.8 -9.28 L 140.8 -9.28 Q 140.8 -6.34 141.28 -4.54 L 141.28 -4.54 L 141.28 -4.54 Q 141.76 -2.75 143.3 -0.9 L 143.3 -0.9 L 142.59 0 L 135.62 0 L 135.62 -19.14 L 135.62 -19.14 Q 135.62 -22.08 134.5 -23.58 L 134.5 -23.58 L 134.5 -23.58 Q 133.38 -25.09 131.2 -25.09 L 131.2 -25.09 L 131.2 -25.09 Q 128.7 -25.09 126.82 -23.1 L 126.82 -23.1 L 126.82 -23.1 Q 124.93 -21.12 123.9 -17.54 L 123.9 -17.54 L 123.9 -17.54 Q 122.88 -13.95 122.88 -9.28 L 122.88 -9.28 L 122.88 -9.28 Q 122.88 -6.59 123.3 -4.93 L 123.3 -4.93 L 123.3 -4.93 Q 123.71 -3.26 124.74 -1.79 L 124.74 -1.79 L 125.44 -0.9 L 124.74 0 L 114.56 0 L 113.98 -1.79 L 115.07 -2.11 L 115.07 -2.11 Q 116.61 -2.37 117.09 -3.3 L 117.09 -3.3 L 117.09 -3.3 Q 117.57 -4.22 117.57 -6.46 L 117.57 -6.46 L 117.57 -22.72 L 117.57 -22.72 Q 117.57 -23.42 117.31 -23.71 L 117.31 -23.71 L 117.31 -23.71 Q 117.06 -24 116.42 -24 L 116.42 -24 L 113.92 -24 L 113.34 -25.54 L 113.34 -25.54 Q 115.01 -27.07 117.18 -28.03 L 117.18 -28.03 L 117.18 -28.03 Q 119.36 -28.99 121.02 -28.99 L 121.02 -28.99 L 121.02 -28.99 Q 121.86 -28.99 122.37 -28.48 L 122.37 -28.48 L 122.37 -28.48 Q 122.88 -27.97 122.88 -27.2 L 122.88 -27.2 L 122.88 -20.86 L 122.88 -20.86 Q 124.35 -24.7 127.26 -27.1 L 127.26 -27.1 L 127.26 -27.1 Q 130.18 -29.5 133.38 -29.5 L 133.38 -29.5 L 133.38 -29.5 Q 136.96 -29.5 138.75 -27.42 L 138.75 -27.42 L 138.75 -27.42 Q 140.54 -25.34 140.8 -20.86 L 140.8 -20.86 L 140.8 -20.86 Q 142.27 -24.64 145.22 -27.07 L 145.22 -27.07 L 145.22 -27.07 Q 148.16 -29.5 151.3 -29.5 L 151.3 -29.5 L 151.3 -29.5 Q 155.2 -29.5 156.96 -27.01 L 156.96 -27.01 L 156.96 -27.01 Q 158.72 -24.51 158.72 -19.14 L 158.72 -19.14 L 158.72 -5.12 L 158.72 -5.12 Q 158.72 -3.14 160.38 -3.14 L 160.38 -3.14 L 160.38 -3.14 Q 161.86 -3.14 163.26 -4.35 L 163.26 -4.35 L 164.42 -2.88 L 164.42 -2.88 Q 162.88 -1.15 161.15 -0.16 L 161.15 -0.16 L 161.15 -0.16 Q 159.42 0.83 157.95 0.83 L 157.95 0.83 Z M 174.4 -34.37 L 174.4 -34.37 Q 173.44 -34.37 172.16 -35.71 L 172.16 -35.71 L 172.16 -35.71 Q 170.88 -37.06 170.88 -38.14 L 170.88 -38.14 L 170.88 -38.14 Q 170.88 -39.23 172.13 -40.58 L 172.13 -40.58 L 172.13 -40.58 Q 173.38 -41.92 174.4 -41.92 L 174.4 -41.92 L 174.4 -41.92 Q 175.49 -41.92 176.77 -40.58 L 176.77 -40.58 L 176.77 -40.58 Q 178.05 -39.23 178.05 -38.14 L 178.05 -38.14 L 178.05 -38.14 Q 178.05 -37.06 176.77 -35.71 L 176.77 -35.71 L 176.77 -35.71 Q 175.49 -34.37 174.4 -34.37 L 174.4 -34.37 Z M 176.32 0.83 L 176.32 0.83 Q 173.95 0.83 172.9 -0.61 L 172.9 -0.61 L 172.9 -0.61 Q 171.84 -2.05 171.84 -5.31 L 171.84 -5.31 L 171.84 -23.23 L 171.84 -23.23 Q 171.84 -24 171.58 -24.32 L 171.58 -24.32 L 171.58 -24.32 Q 171.33 -24.64 170.69 -24.64 L 170.69 -24.64 L 168.06 -24.64 L 167.62 -26.05 L 167.62 -26.05 Q 169.28 -27.58 171.42 -28.54 L 171.42 -28.54 L 171.42 -28.54 Q 173.57 -29.5 175.17 -29.5 L 175.17 -29.5 L 175.17 -29.5 Q 176 -29.5 176.54 -29.02 L 176.54 -29.02 L 176.54 -29.02 Q 177.09 -28.54 177.09 -27.78 L 177.09 -27.78 L 177.09 -5.12 L 177.09 -5.12 Q 177.09 -3.14 178.82 -3.14 L 178.82 -3.14 L 178.82 -3.14 Q 180.16 -3.14 181.76 -4.35 L 181.76 -4.35 L 182.85 -2.88 L 182.85 -2.88 Q 181.25 -1.22 179.49 -0.19 L 179.49 -0.19 L 179.49 -0.19 Q 177.73 0.83 176.32 0.83 L 176.32 0.83 Z M 225.09 16.19 L 225.09 16.19 Q 221.7 16.19 219.3 15.01 L 219.3 15.01 L 219.3 15.01 Q 216.9 13.82 215.71 11.9 L 215.71 11.9 L 215.71 11.9 Q 214.53 9.98 214.53 7.87 L 214.53 7.87 L 214.53 7.87 Q 214.53 4.93 216.48 2.88 L 216.48 2.88 L 216.48 2.88 Q 218.43 0.83 221.89 0.83 L 221.89 0.83 L 221.89 0.83 Q 222.98 0.83 222.98 1.41 L 222.98 1.41 L 222.98 1.41 Q 222.98 1.66 222.14 2.53 L 222.14 2.53 L 222.14 2.53 Q 221.31 3.39 220.7 4.61 L 220.7 4.61 L 220.7 4.61 Q 220.1 5.82 220.1 7.68 L 220.1 7.68 L 220.1 7.68 Q 220.1 10.05 221.7 11.58 L 221.7 11.58 L 221.7 11.58 Q 223.3 13.12 226.05 13.12 L 226.05 13.12 L 226.05 13.12 Q 229.89 13.12 231.78 10.21 L 231.78 10.21 L 231.78 10.21 Q 233.66 7.3 233.66 0.7 L 233.66 0.7 L 233.66 -4.8 L 233.66 -4.8 Q 228.99 -0.96 223.42 -0.96 L 223.42 -0.96 L 223.42 -0.96 Q 217.54 -0.96 213.5 -3.71 L 213.5 -3.71 L 213.5 -3.71 Q 209.47 -6.46 207.46 -11.2 L 207.46 -11.2 L 207.46 -11.2 Q 205.44 -15.94 205.44 -21.82 L 205.44 -21.82 L 205.44 -21.82 Q 205.44 -27.46 207.58 -32.13 L 207.58 -32.13 L 207.58 -32.13 Q 209.73 -36.8 214.05 -39.62 L 214.05 -39.62 L 214.05 -39.62 Q 218.37 -42.43 224.58 -42.43 L 224.58 -42.43 L 224.58 -42.43 Q 228.61 -42.43 231.81 -41.28 L 231.81 -41.28 L 231.81 -41.28 Q 235.01 -40.13 236.8 -38.05 L 236.8 -38.05 L 236.8 -38.05 Q 238.59 -35.97 238.59 -33.34 L 238.59 -33.34 L 238.59 -33.34 Q 238.59 -30.34 236.83 -28.42 L 236.83 -28.42 L 236.83 -28.42 Q 235.07 -26.5 232.38 -26.5 L 232.38 -26.5 L 232.38 -26.5 Q 231.55 -26.5 231.39 -26.62 L 231.39 -26.62 L 231.39 -26.62 Q 231.23 -26.75 231.23 -27.26 L 231.23 -27.26 L 231.23 -27.26 Q 231.23 -27.46 231.71 -28.26 L 231.71 -28.26 L 231.71 -28.26 Q 232.19 -29.06 232.51 -30.08 L 232.51 -30.08 L 232.51 -30.08 Q 232.83 -31.1 232.83 -32.51 L 232.83 -32.51 L 232.83 -32.51 Q 232.83 -35.52 230.56 -37.38 L 230.56 -37.38 L 230.56 -37.38 Q 228.29 -39.23 224.58 -39.23 L 224.58 -39.23 L 224.58 -39.23 Q 220.03 -39.23 217.15 -36.61 L 217.15 -36.61 L 217.15 -36.61 Q 214.27 -33.98 212.99 -30.08 L 212.99 -30.08 L 212.99 -30.08 Q 211.71 -26.18 211.71 -22.08 L 211.71 -22.08 L 211.71 -22.08 Q 211.71 -17.28 213.18 -13.31 L 213.18 -13.31 L 213.18 -13.31 Q 214.66 -9.34 217.44 -7.04 L 217.44 -7.04 L 217.44 -7.04 Q 220.22 -4.74 223.87 -4.74 L 223.87 -4.74 L 223.87 -4.74 Q 229.76 -4.74 233.66 -8.64 L 233.66 -8.64 L 233.66 -11.58 L 233.66 -11.58 Q 233.66 -14.21 232.86 -15.26 L 232.86 -15.26 L 232.86 -15.26 Q 232.06 -16.32 229.82 -16.96 L 229.82 -16.96 L 228.61 -17.34 L 229.25 -19.39 L 241.47 -19.39 L 242.18 -18.37 L 241.47 -17.34 L 241.47 -17.34 Q 240 -15.42 239.39 -13.25 L 239.39 -13.25 L 239.39 -13.25 Q 238.78 -11.07 238.78 -7.62 L 238.78 -7.62 L 238.78 -0.96 L 238.78 -0.96 Q 238.78 16.19 225.09 16.19 L 225.09 16.19 Z M 259.33 0.83 L 259.33 0.83 Q 255.3 0.83 252.29 -1.02 L 252.29 -1.02 L 252.29 -1.02 Q 249.28 -2.88 247.62 -6.24 L 247.62 -6.24 L 247.62 -6.24 Q 245.95 -9.6 245.95 -14.02 L 245.95 -14.02 L 245.95 -14.02 Q 245.95 -18.62 247.81 -22.14 L 247.81 -22.14 L 247.81 -22.14 Q 249.66 -25.66 253.09 -27.58 L 253.09 -27.58 L 253.09 -27.58 Q 256.51 -29.5 260.99 -29.5 L 260.99 -29.5 L 260.99 -29.5 Q 265.73 -29.5 268.32 -27.01 L 268.32 -27.01 L 268.32 -27.01 Q 270.91 -24.51 270.91 -20.99 L 270.91 -20.99 L 270.91 -20.99 Q 270.91 -18.56 269.6 -16.32 L 269.6 -16.32 L 269.6 -16.32 Q 268.29 -14.08 265.76 -12.67 L 265.76 -12.67 L 265.76 -12.67 Q 263.23 -11.26 259.84 -11.26 L 259.84 -11.26 L 259.84 -11.26 Q 257.92 -11.26 255.68 -11.94 L 255.68 -11.94 L 255.68 -11.94 Q 253.44 -12.61 253.44 -13.95 L 253.44 -13.95 L 253.44 -13.95 Q 253.44 -14.46 253.7 -14.85 L 253.7 -14.85 L 253.7 -14.85 Q 253.95 -15.23 254.27 -15.23 L 254.27 -15.23 L 254.27 -15.23 Q 254.46 -15.23 255.46 -14.88 L 255.46 -14.88 L 255.46 -14.88 Q 256.45 -14.53 258.05 -14.53 L 258.05 -14.53 L 258.05 -14.53 Q 261.57 -14.53 263.49 -16.45 L 263.49 -16.45 L 263.49 -16.45 Q 265.41 -18.37 265.41 -21.06 L 265.41 -21.06 L 265.41 -21.06 Q 265.41 -23.36 263.9 -25.02 L 263.9 -25.02 L 263.9 -25.02 Q 262.4 -26.69 259.9 -26.69 L 259.9 -26.69 L 259.9 -26.69 Q 256.13 -26.69 254.05 -23.39 L 254.05 -23.39 L 254.05 -23.39 Q 251.97 -20.1 251.97 -14.02 L 251.97 -14.02 L 251.97 -14.02 Q 251.97 -8.83 254.18 -5.92 L 254.18 -5.92 L 254.18 -5.92 Q 256.38 -3.01 260.54 -3.01 L 260.54 -3.01 L 260.54 -3.01 Q 265.66 -3.01 268.99 -6.34 L 268.99 -6.34 L 268.99 -6.34 Q 269.18 -6.53 269.5 -6.53 L 269.5 -6.53 L 269.5 -6.53 Q 270.02 -6.53 270.56 -6.02 L 270.56 -6.02 L 270.56 -6.02 Q 271.1 -5.5 271.1 -4.93 L 271.1 -4.93 L 271.1 -4.93 Q 271.1 -4.74 270.98 -4.58 L 270.98 -4.58 L 270.98 -4.58 Q 270.85 -4.42 270.85 -4.35 L 270.85 -4.35 L 270.85 -4.35 Q 268.67 -1.79 265.7 -0.48 L 265.7 -0.48 L 265.7 -0.48 Q 262.72 0.83 259.33 0.83 L 259.33 0.83 Z M 277.57 0 L 276.99 -1.79 L 278.08 -2.11 L 278.08 -2.11 Q 279.62 -2.37 280.1 -3.3 L 280.1 -3.3 L 280.1 -3.3 Q 280.58 -4.22 280.58 -6.46 L 280.58 -6.46 L 280.58 -22.72 L 280.58 -22.72 Q 280.58 -23.42 280.32 -23.71 L 280.32 -23.71 L 280.32 -23.71 Q 280.06 -24 279.42 -24 L 279.42 -24 L 276.93 -24 L 276.35 -25.54 L 276.35 -25.54 Q 278.02 -27.07 280.19 -28.03 L 280.19 -28.03 L 280.19 -28.03 Q 282.37 -28.99 284.03 -28.99 L 284.03 -28.99 L 284.03 -28.99 Q 284.86 -28.99 285.38 -28.48 L 285.38 -28.48 L 285.38 -28.48 Q 285.89 -27.97 285.89 -27.2 L 285.89 -27.2 L 285.89 -20.86 L 286.21 -20.86 L 286.21 -20.86 Q 287.23 -24.77 289.31 -27.14 L 289.31 -27.14 L 289.31 -27.14 Q 291.39 -29.5 293.82 -29.5 L 293.82 -29.5 L 293.82 -29.5 Q 296.26 -29.5 297.82 -27.94 L 297.82 -27.94 L 297.82 -27.94 Q 299.39 -26.37 299.39 -23.62 L 299.39 -23.62 L 299.39 -23.62 Q 299.39 -21.44 297.79 -19.97 L 297.79 -19.97 L 297.79 -19.97 Q 296.19 -18.5 293.76 -18.5 L 293.76 -18.5 L 293.76 -18.5 Q 292.61 -18.5 292.61 -19.07 L 292.61 -19.07 L 292.61 -19.07 Q 292.61 -19.26 293.06 -19.97 L 293.06 -19.97 L 293.06 -19.97 Q 293.5 -20.67 293.82 -21.38 L 293.82 -21.38 L 293.82 -21.38 Q 294.14 -22.08 294.14 -23.04 L 294.14 -23.04 L 294.14 -23.04 Q 294.14 -24.13 293.63 -24.74 L 293.63 -24.74 L 293.63 -24.74 Q 293.12 -25.34 292.29 -25.34 L 292.29 -25.34 L 292.29 -25.34 Q 290.94 -25.34 289.47 -23.68 L 289.47 -23.68 L 289.47 -23.68 Q 288 -22.02 286.94 -18.37 L 286.94 -18.37 L 286.94 -18.37 Q 285.89 -14.72 285.89 -9.09 L 285.89 -9.09 L 285.89 -9.09 Q 285.89 -6.46 286.3 -4.83 L 286.3 -4.83 L 286.3 -4.83 Q 286.72 -3.2 287.74 -1.79 L 287.74 -1.79 L 288.45 -0.9 L 287.74 0 L 277.57 0 Z M 310.14 0.83 L 310.14 0.83 Q 307.78 0.83 306.43 -0.67 L 306.43 -0.67 L 306.43 -0.67 Q 305.09 -2.18 305.09 -4.8 L 305.09 -4.8 L 305.09 -25.22 L 300.03 -25.22 L 300.03 -25.22 Q 300.03 -26.75 300.29 -27.23 L 300.29 -27.23 L 300.29 -27.23 Q 300.54 -27.71 301.44 -27.97 L 301.44 -27.97 L 301.44 -27.97 Q 304.51 -28.74 305.79 -30.53 L 305.79 -30.53 L 305.79 -30.53 Q 307.07 -32.32 307.71 -35.26 L 307.71 -35.26 L 307.71 -35.26 Q 307.84 -36.16 308.32 -36.38 L 308.32 -36.38 L 308.32 -36.38 Q 308.8 -36.61 310.46 -36.61 L 310.46 -36.61 L 310.46 -28.8 L 317.95 -28.8 L 317.95 -28.8 Q 317.95 -27.58 317.6 -26.62 L 317.6 -26.62 L 317.6 -26.62 Q 317.25 -25.66 316.67 -25.22 L 316.67 -25.22 L 310.46 -25.22 L 310.46 -6.46 L 310.46 -6.46 Q 310.46 -4.67 310.94 -3.94 L 310.94 -3.94 L 310.94 -3.94 Q 311.42 -3.2 312.64 -3.2 L 312.64 -3.2 L 312.64 -3.2 Q 314.37 -3.2 316.54 -5.06 L 316.54 -5.06 L 317.63 -3.52 L 317.63 -3.52 Q 316.16 -1.6 314.05 -0.38 L 314.05 -0.38 L 314.05 -0.38 Q 311.94 0.83 310.14 0.83 L 310.14 0.83 Z M 343.42 1.34 L 343.42 1.34 Q 342.14 0.58 340.67 0.29 L 340.67 0.29 L 340.67 0.29 Q 339.2 0 336.45 0 L 336.45 0 L 321.6 0 L 321.02 -1.79 L 337.22 -25.41 L 328.58 -25.41 L 328.58 -25.41 Q 326.34 -25.41 325.47 -24.93 L 325.47 -24.93 L 325.47 -24.93 Q 324.61 -24.45 324.29 -22.98 L 324.29 -22.98 L 323.58 -19.97 L 321.79 -20.54 L 321.79 -29.44 L 322.43 -30.27 L 322.43 -30.27 Q 323.71 -29.38 325.18 -29.09 L 325.18 -29.09 L 325.18 -29.09 Q 326.66 -28.8 329.41 -28.8 L 329.41 -28.8 L 343.87 -28.8 L 343.87 -28.8 Q 344.96 -27.78 344.96 -26.3 L 344.96 -26.3 L 343.42 -25.34 L 328.19 -3.33 L 337.22 -3.33 L 337.22 -3.33 Q 339.46 -3.33 340.42 -3.84 L 340.42 -3.84 L 340.42 -3.84 Q 341.38 -4.35 341.63 -5.82 L 341.63 -5.82 L 342.27 -8.83 L 344.13 -8.26 L 344.13 0.7 L 343.42 1.34 Z" stroke-linecap="round" />
</g>
</svg>