<svg width="833px" height="150.64000244140624px" xmlns="http://www.w3.org/2000/svg" viewBox="-166.5 -0.3200012207031193 833 150.64000244140624" style="background: none;" preserveAspectRatio="xMidYMid"><defs><filter id="editing-extrude-glow"><feFlood flood-color="#80a352" result="flood-1"></feFlood><feMorphology operator="erode" radius="1" in="SourceAlpha" result="erode"></feMorphology><feComposite operator="in" in="flood-1" in2="erode" result="comp1"></feComposite><feConvolveMatrix order="0,0" divisor="1" in="comp1" result="convolve" kernelMatrix=""></feConvolveMatrix><feOffset dx="0" dy="0" in="convolve" result="extrude"></feOffset><feComposite operator="in" in="flood-1" in2="extrude" result="comp-extrude"></feComposite><feFlood flood-color="#cfd7cc" result="flood-2"></feFlood><feComposite operator="in" in="flood-2" in2="SourceAlpha" result="comp2"></feComposite><feMorphology operator="dilate" radius="1" in="comp2" result="dilate"></feMorphology><feOffset dx="0" dy="0" in="dilate" result="offset"></feOffset><feGaussianBlur in="offset" stdDeviation="5.8" result="blur"></feGaussianBlur><feComponentTransfer in="blur" result="shadow"><feFuncA type="linear" slope="0.8" intercept="-0.2"></feFuncA></feComponentTransfer><feMerge><feMergeNode in="shadow"></feMergeNode><feMergeNode in="comp-extrude"></feMergeNode><feMergeNode in="SourceGraphic"></feMergeNode></feMerge></filter></defs><g filter="url(#editing-extrude-glow)"><g transform="translate(-46.414997577667236, 107.2549991607666)"><path d="M2.69 0L1.98-1.98L3.33-2.30L3.33-2.30Q5.57-3.01 6.27-4L6.27-4L6.27-4Q6.98-4.99 6.98-7.68L6.98-7.68L6.98-33.92L6.98-33.92Q6.98-36.61 6.24-37.66L6.24-37.66L6.24-37.66Q5.50-38.72 3.33-39.30L3.33-39.30L1.98-39.62L2.69-41.60L12.03-41.60L34.18-8.77L34.18-33.92L34.18-33.92Q34.18-36.54 33.41-37.63L33.41-37.63L33.41-37.63Q32.64-38.72 30.46-39.30L30.46-39.30L29.06-39.62L29.89-41.60L40.77-41.60L41.60-40.70L40.77-39.62L40.77-39.62Q39.36-37.76 38.78-35.62L38.78-35.62L38.78-35.62Q38.21-33.47 38.21-30.02L38.21-30.02L38.21-5.12L38.21-5.12Q38.21-3.33 39.04-1.98L39.04-1.98L39.74-0.96L39.04 0L33.22 0L11.14-32.83L11.14-11.65L11.14-11.65Q11.14-8.06 11.68-5.95L11.68-5.95L11.68-5.95Q12.22-3.84 13.70-1.98L13.70-1.98L14.46-0.96L13.70 0L2.69 0ZM55.68 0.83L55.68 0.83Q52.86 0.83 50.46-0.80L50.46-0.80L50.46-0.80Q48.06-2.43 46.62-5.60L46.62-5.60L46.62-5.60Q45.18-8.77 45.18-13.31L45.18-13.31L45.18-13.31Q45.18-20.80 49.25-25.15L49.25-25.15L49.25-25.15Q53.31-29.50 60.22-29.50L60.22-29.50L60.22-29.50Q62.53-29.50 66.50-28.80L66.50-28.80L66.50-28.80Q69.44-28.29 71.81-28.10L71.81-28.10L72.58-27.39L71.74-26.30L71.74-26.30Q71.30-25.54 71.14-25.12L71.14-25.12L71.14-25.12Q70.98-24.70 70.98-24L70.98-24L70.98-5.12L70.98-5.12Q70.98-3.33 72.83-3.33L72.83-3.33L72.83-3.33Q74.24-3.33 75.71-4.35L75.71-4.35L76.80-2.88L76.80-2.88Q75.26-1.15 73.54-0.16L73.54-0.16L73.54-0.16Q71.81 0.83 70.40 0.83L70.40 0.83L70.40 0.83Q67.97 0.83 66.88-0.61L66.88-0.61L66.88-0.61Q65.79-2.05 65.79-5.31L65.79-5.31L65.79-5.31Q63.49-1.92 61.02-0.54L61.02-0.54L61.02-0.54Q58.56 0.83 55.68 0.83L55.68 0.83ZM57.92-3.71L57.92-3.71Q62.78-3.71 65.79-8.96L65.79-8.96L65.79-24.64L65.79-24.64Q63.30-26.30 60.16-26.30L60.16-26.30L60.16-26.30Q56.00-26.30 53.66-23.20L53.66-23.20L53.66-23.20Q51.33-20.10 51.33-14.40L51.33-14.40L51.33-14.40Q51.33-8.90 53.22-6.30L53.22-6.30L53.22-6.30Q55.10-3.71 57.92-3.71L57.92-3.71ZM94.34 0.83L94.34 0.83Q87.81 0.83 83.97-3.30L83.97-3.30L83.97-3.30Q80.13-7.42 80.13-14.40L80.13-14.40L80.13-14.40Q80.13-21.38 83.97-25.44L83.97-25.44L83.97-25.44Q87.81-29.50 94.34-29.50L94.34-29.50L94.34-29.50Q98.62-29.50 101.82-27.65L101.82-27.65L101.82-27.65Q105.02-25.79 106.75-22.40L106.75-22.40L106.75-22.40Q108.48-19.01 108.48-14.40L108.48-14.40L108.48-14.40Q108.48-9.79 106.72-6.34L106.72-6.34L106.72-6.34Q104.96-2.88 101.76-1.02L101.76-1.02L101.76-1.02Q98.56 0.83 94.34 0.83L94.34 0.83ZM94.21-2.30L94.21-2.30Q97.86-2.30 100.13-5.60L100.13-5.60L100.13-5.60Q102.40-8.90 102.40-14.27L102.40-14.27L102.40-14.27Q102.40-17.02 101.63-19.81L101.63-19.81L101.63-19.81Q100.86-22.59 99.10-24.54L99.10-24.54L99.10-24.54Q97.34-26.50 94.53-26.50L94.53-26.50L94.53-26.50Q90.75-26.50 88.48-23.17L88.48-23.17L88.48-23.17Q86.21-19.84 86.21-14.34L86.21-14.34L86.21-14.34Q86.21-8.83 88.35-5.57L88.35-5.57L88.35-5.57Q90.50-2.30 94.21-2.30L94.21-2.30ZM157.95 0.83L157.95 0.83Q155.58 0.83 154.53-0.61L154.53-0.61L154.53-0.61Q153.47-2.05 153.47-5.31L153.47-5.31L153.47-19.14L153.47-19.14Q153.47-25.09 149.18-25.09L149.18-25.09L149.18-25.09Q146.82-25.09 144.93-23.20L144.93-23.20L144.93-23.20Q143.04-21.31 141.95-17.89L141.95-17.89L141.95-17.89Q140.86-14.46 140.80-9.98L140.80-9.98L140.80-9.28L140.80-9.28Q140.80-6.34 141.28-4.54L141.28-4.54L141.28-4.54Q141.76-2.75 143.30-0.90L143.30-0.90L142.59 0L135.62 0L135.62-19.14L135.62-19.14Q135.62-22.08 134.50-23.58L134.50-23.58L134.50-23.58Q133.38-25.09 131.20-25.09L131.20-25.09L131.20-25.09Q128.70-25.09 126.82-23.10L126.82-23.10L126.82-23.10Q124.93-21.12 123.90-17.54L123.90-17.54L123.90-17.54Q122.88-13.95 122.88-9.28L122.88-9.28L122.88-9.28Q122.88-6.59 123.30-4.93L123.30-4.93L123.30-4.93Q123.71-3.26 124.74-1.79L124.74-1.79L125.44-0.90L124.74 0L114.56 0L113.98-1.79L115.07-2.11L115.07-2.11Q116.61-2.37 117.09-3.30L117.09-3.30L117.09-3.30Q117.57-4.22 117.57-6.46L117.57-6.46L117.57-22.72L117.57-22.72Q117.57-23.42 117.31-23.71L117.31-23.71L117.31-23.71Q117.06-24 116.42-24L116.42-24L113.92-24L113.34-25.54L113.34-25.54Q115.01-27.07 117.18-28.03L117.18-28.03L117.18-28.03Q119.36-28.99 121.02-28.99L121.02-28.99L121.02-28.99Q121.86-28.99 122.37-28.48L122.37-28.48L122.37-28.48Q122.88-27.97 122.88-27.20L122.88-27.20L122.88-20.86L122.88-20.86Q124.35-24.70 127.26-27.10L127.26-27.10L127.26-27.10Q130.18-29.50 133.38-29.50L133.38-29.50L133.38-29.50Q136.96-29.50 138.75-27.42L138.75-27.42L138.75-27.42Q140.54-25.34 140.80-20.86L140.80-20.86L140.80-20.86Q142.27-24.64 145.22-27.07L145.22-27.07L145.22-27.07Q148.16-29.50 151.30-29.50L151.30-29.50L151.30-29.50Q155.20-29.50 156.96-27.01L156.96-27.01L156.96-27.01Q158.72-24.51 158.72-19.14L158.72-19.14L158.72-5.12L158.72-5.12Q158.72-3.14 160.38-3.14L160.38-3.14L160.38-3.14Q161.86-3.14 163.26-4.35L163.26-4.35L164.42-2.88L164.42-2.88Q162.88-1.15 161.15-0.16L161.15-0.16L161.15-0.16Q159.42 0.83 157.95 0.83L157.95 0.83ZM174.40-34.37L174.40-34.37Q173.44-34.37 172.16-35.71L172.16-35.71L172.16-35.71Q170.88-37.06 170.88-38.14L170.88-38.14L170.88-38.14Q170.88-39.23 172.13-40.58L172.13-40.58L172.13-40.58Q173.38-41.92 174.40-41.92L174.40-41.92L174.40-41.92Q175.49-41.92 176.77-40.58L176.77-40.58L176.77-40.58Q178.05-39.23 178.05-38.14L178.05-38.14L178.05-38.14Q178.05-37.06 176.77-35.71L176.77-35.71L176.77-35.71Q175.49-34.37 174.40-34.37L174.40-34.37ZM176.32 0.83L176.32 0.83Q173.95 0.83 172.90-0.61L172.90-0.61L172.90-0.61Q171.84-2.05 171.84-5.31L171.84-5.31L171.84-23.23L171.84-23.23Q171.84-24 171.58-24.32L171.58-24.32L171.58-24.32Q171.33-24.64 170.69-24.64L170.69-24.64L168.06-24.64L167.62-26.05L167.62-26.05Q169.28-27.58 171.42-28.54L171.42-28.54L171.42-28.54Q173.57-29.50 175.17-29.50L175.17-29.50L175.17-29.50Q176.00-29.50 176.54-29.02L176.54-29.02L176.54-29.02Q177.09-28.54 177.09-27.78L177.09-27.78L177.09-5.12L177.09-5.12Q177.09-3.14 178.82-3.14L178.82-3.14L178.82-3.14Q180.16-3.14 181.76-4.35L181.76-4.35L182.85-2.88L182.85-2.88Q181.25-1.22 179.49-0.19L179.49-0.19L179.49-0.19Q177.73 0.83 176.32 0.83L176.32 0.83ZM188.80-33.22L188.80-33.22Q187.71-33.22 187.65-34.24L187.65-34.24L187.65-34.24Q186.88-37.38 186.34-41.06L186.34-41.06L186.34-41.06Q185.79-44.74 185.79-46.66L185.79-46.66L185.79-46.66Q186.88-48.32 188.80-48.32L188.80-48.32L188.80-48.32Q190.72-48.32 191.74-46.66L191.74-46.66L191.74-46.66Q191.74-44.93 191.26-41.31L191.26-41.31L191.26-41.31Q190.78-37.70 189.95-34.24L189.95-34.24L189.95-34.24Q189.82-33.66 189.57-33.44L189.57-33.44L189.57-33.44Q189.31-33.22 188.80-33.22L188.80-33.22ZM208.26 0.83L208.26 0.83Q203.90 0.83 201.02-1.18L201.02-1.18L201.02-1.18Q198.14-3.20 198.14-6.46L198.14-6.46L198.14-6.46Q198.14-8.38 199.52-9.70L199.52-9.70L199.52-9.70Q200.90-11.01 203.01-11.01L203.01-11.01L203.01-11.01Q203.46-11.01 203.84-10.82L203.84-10.82L203.84-10.82Q204.22-10.62 204.22-10.30L204.22-10.30L204.22-10.30Q204.22-10.11 203.84-9.18L203.84-9.18L203.84-9.18Q203.46-8.26 203.46-6.98L203.46-6.98L203.46-6.98Q203.46-4.61 205.15-3.33L205.15-3.33L205.15-3.33Q206.85-2.05 208.96-2.05L208.96-2.05L208.96-2.05Q211.39-2.05 212.93-3.33L212.93-3.33L212.93-3.33Q214.46-4.61 214.46-6.66L214.46-6.66L214.46-6.66Q214.46-8.51 212.83-9.73L212.83-9.73L212.83-9.73Q211.20-10.94 208.13-12.22L208.13-12.22L208.13-12.22Q205.31-13.44 203.42-14.53L203.42-14.53L203.42-14.53Q201.54-15.62 200.19-17.41L200.19-17.41L200.19-17.41Q198.85-19.20 198.85-21.76L198.85-21.76L198.85-21.76Q198.85-25.15 201.86-27.33L201.86-27.33L201.86-27.33Q204.86-29.50 209.41-29.50L209.41-29.50L209.41-29.50Q213.57-29.50 216.26-27.94L216.26-27.94L216.26-27.94Q218.94-26.37 218.94-23.62L218.94-23.62L218.94-23.62Q218.94-21.38 217.60-19.97L217.60-19.97L217.60-19.97Q216.26-18.56 214.08-18.56L214.08-18.56L214.08-18.56Q212.80-18.56 212.80-19.39L212.80-19.39L212.80-19.39Q212.80-19.65 213.28-20.54L213.28-20.54L213.28-20.54Q213.76-21.44 213.76-22.59L213.76-22.59L213.76-22.59Q213.76-24.64 212.29-25.70L212.29-25.70L212.29-25.70Q210.82-26.75 208.96-26.75L208.96-26.75L208.96-26.75Q206.59-26.75 205.22-25.60L205.22-25.60L205.22-25.60Q203.84-24.45 203.84-22.59L203.84-22.59L203.84-22.59Q203.84-20.42 205.63-19.04L205.63-19.04L205.63-19.04Q207.42-17.66 210.69-16.45L210.69-16.45L210.69-16.45Q213.50-15.23 215.36-14.21L215.36-14.21L215.36-14.21Q217.22-13.18 218.50-11.62L218.50-11.62L218.50-11.62Q219.78-10.05 219.78-7.94L219.78-7.94L219.78-7.94Q219.78-3.97 216.61-1.57L216.61-1.57L216.61-1.57Q213.44 0.83 208.26 0.83L208.26 0.83ZM246.02 0L245.25-0.96L246.02-1.98L246.02-1.98Q247.49-3.90 248.10-6.02L248.10-6.02L248.10-6.02Q248.70-8.13 248.70-11.65L248.70-11.65L248.70-30.02L248.70-30.02Q248.70-33.41 248.10-35.55L248.10-35.55L248.10-35.55Q247.49-37.70 246.02-39.62L246.02-39.62L245.25-40.70L246.02-41.60L263.17-41.60L263.17-41.60Q265.79-41.60 267.36-41.89L267.36-41.89L267.36-41.89Q268.93-42.18 269.89-42.82L269.89-42.82L270.85-43.58L271.74-42.82L271.74-32.51L269.89-31.81L269.44-33.22L269.44-33.22Q268.86-35.39 268.22-36.45L268.22-36.45L268.22-36.45Q267.58-37.50 266.43-37.95L266.43-37.95L266.43-37.95Q265.28-38.40 263.17-38.40L263.17-38.40L258.05-38.40L258.05-38.40Q255.81-38.40 255.10-37.50L255.10-37.50L255.10-37.50Q254.40-36.61 254.40-33.92L254.40-33.92L254.40-22.21L261.25-22.21L261.25-22.21Q262.66-22.21 263.71-22.78L263.71-22.78L263.71-22.78Q264.77-23.36 265.73-24.90L265.73-24.90L266.24-25.54L267.46-24.90L267.46-14.91L265.41-14.27L265.15-15.55L265.15-15.55Q264.58-17.54 263.23-18.24L263.23-18.24L263.23-18.24Q261.89-18.94 258.75-18.94L258.75-18.94L254.40-18.94L254.40-7.68L254.40-7.68Q254.40-4.99 255.10-4L255.10-4L255.10-4Q255.81-3.01 258.05-2.30L258.05-2.30L259.46-1.98L258.75 0L246.02 0ZM283.20-34.37L283.20-34.37Q282.24-34.37 280.96-35.71L280.96-35.71L280.96-35.71Q279.68-37.06 279.68-38.14L279.68-38.14L279.68-38.14Q279.68-39.23 280.93-40.58L280.93-40.58L280.93-40.58Q282.18-41.92 283.20-41.92L283.20-41.92L283.20-41.92Q284.29-41.92 285.57-40.58L285.57-40.58L285.57-40.58Q286.85-39.23 286.85-38.14L286.85-38.14L286.85-38.14Q286.85-37.06 285.57-35.71L285.57-35.71L285.57-35.71Q284.29-34.37 283.20-34.37L283.20-34.37ZM285.12 0.83L285.12 0.83Q282.75 0.83 281.70-0.61L281.70-0.61L281.70-0.61Q280.64-2.05 280.64-5.31L280.64-5.31L280.64-23.23L280.64-23.23Q280.64-24 280.38-24.32L280.38-24.32L280.38-24.32Q280.13-24.64 279.49-24.64L279.49-24.64L276.86-24.64L276.42-26.05L276.42-26.05Q278.08-27.58 280.22-28.54L280.22-28.54L280.22-28.54Q282.37-29.50 283.97-29.50L283.97-29.50L283.97-29.50Q284.80-29.50 285.34-29.02L285.34-29.02L285.34-29.02Q285.89-28.54 285.89-27.78L285.89-27.78L285.89-5.12L285.89-5.12Q285.89-3.14 287.62-3.14L287.62-3.14L287.62-3.14Q288.96-3.14 290.56-4.35L290.56-4.35L291.65-2.88L291.65-2.88Q290.05-1.22 288.29-0.19L288.29-0.19L288.29-0.19Q286.53 0.83 285.12 0.83L285.12 0.83ZM302.59 0.83L302.59 0.83Q300.16 0.83 299.10-0.61L299.10-0.61L299.10-0.61Q298.05-2.05 298.05-5.31L298.05-5.31L298.05-39.10L298.05-39.10Q298.05-39.81 297.79-40.10L297.79-40.10L297.79-40.10Q297.54-40.38 296.90-40.38L296.90-40.38L294.40-40.38L293.82-41.86L293.82-41.86Q295.49-43.39 297.66-44.38L297.66-44.38L297.66-44.38Q299.84-45.38 301.57-45.38L301.57-45.38L301.57-45.38Q302.40-45.38 302.91-44.86L302.91-44.86L302.91-44.86Q303.42-44.35 303.42-43.52L303.42-43.52L303.30-5.12L303.30-5.12Q303.30-4.16 303.74-3.65L303.74-3.65L303.74-3.65Q304.19-3.14 305.02-3.14L305.02-3.14L305.02-3.14Q306.62-3.14 307.90-4.35L307.90-4.35L309.06-2.88L309.06-2.88Q307.58-1.22 305.79-0.19L305.79-0.19L305.79-0.19Q304 0.83 302.59 0.83L302.59 0.83ZM356.74 0.83L356.74 0.83Q354.37 0.83 353.31-0.61L353.31-0.61L353.31-0.61Q352.26-2.05 352.26-5.31L352.26-5.31L352.26-19.14L352.26-19.14Q352.26-25.09 347.97-25.09L347.97-25.09L347.97-25.09Q345.60-25.09 343.71-23.20L343.71-23.20L343.71-23.20Q341.82-21.31 340.74-17.89L340.74-17.89L340.74-17.89Q339.65-14.46 339.58-9.98L339.58-9.98L339.58-9.28L339.58-9.28Q339.58-6.34 340.06-4.54L340.06-4.54L340.06-4.54Q340.54-2.75 342.08-0.90L342.08-0.90L341.38 0L334.40 0L334.40-19.14L334.40-19.14Q334.40-22.08 333.28-23.58L333.28-23.58L333.28-23.58Q332.16-25.09 329.98-25.09L329.98-25.09L329.98-25.09Q327.49-25.09 325.60-23.10L325.60-23.10L325.60-23.10Q323.71-21.12 322.69-17.54L322.69-17.54L322.69-17.54Q321.66-13.95 321.66-9.28L321.66-9.28L321.66-9.28Q321.66-6.59 322.08-4.93L322.08-4.93L322.08-4.93Q322.50-3.26 323.52-1.79L323.52-1.79L324.22-0.90L323.52 0L313.34 0L312.77-1.79L313.86-2.11L313.86-2.11Q315.39-2.37 315.87-3.30L315.87-3.30L315.87-3.30Q316.35-4.22 316.35-6.46L316.35-6.46L316.35-22.72L316.35-22.72Q316.35-23.42 316.10-23.71L316.10-23.71L316.10-23.71Q315.84-24 315.20-24L315.20-24L312.70-24L312.13-25.54L312.13-25.54Q313.79-27.07 315.97-28.03L315.97-28.03L315.97-28.03Q318.14-28.99 319.81-28.99L319.81-28.99L319.81-28.99Q320.64-28.99 321.15-28.48L321.15-28.48L321.15-28.48Q321.66-27.97 321.66-27.20L321.66-27.20L321.66-20.86L321.66-20.86Q323.14-24.70 326.05-27.10L326.05-27.10L326.05-27.10Q328.96-29.50 332.16-29.50L332.16-29.50L332.16-29.50Q335.74-29.50 337.54-27.42L337.54-27.42L337.54-27.42Q339.33-25.34 339.58-20.86L339.58-20.86L339.58-20.86Q341.06-24.64 344-27.07L344-27.07L344-27.07Q346.94-29.50 350.08-29.50L350.08-29.50L350.08-29.50Q353.98-29.50 355.74-27.01L355.74-27.01L355.74-27.01Q357.50-24.51 357.50-19.14L357.50-19.14L357.50-5.12L357.50-5.12Q357.50-3.14 359.17-3.14L359.17-3.14L359.17-3.14Q360.64-3.14 362.05-4.35L362.05-4.35L363.20-2.88L363.20-2.88Q361.66-1.15 359.94-0.16L359.94-0.16L359.94-0.16Q358.21 0.83 356.74 0.83L356.74 0.83ZM383.94 0L383.17-1.98L384.51-2.30L384.51-2.30Q386.88-3.01 387.90-4L387.90-4L387.90-4Q388.93-4.99 389.82-7.68L389.82-7.68L398.91-33.92L398.91-33.92Q399.55-35.97 399.55-36.74L399.55-36.74L399.55-36.74Q399.55-37.82 398.94-38.43L398.94-38.43L398.94-38.43Q398.34-39.04 396.99-39.30L396.99-39.30L395.65-39.62L396.35-41.60L407.49-41.60L419.20-8.06L419.20-8.06Q420.16-5.31 421.22-3.97L421.22-3.97L421.22-3.97Q422.27-2.62 424.45-0.96L424.45-0.96L423.68 0L410.56 0L409.92-1.98L411.33-2.30L411.33-2.30Q412.67-2.62 413.28-3.23L413.28-3.23L413.28-3.23Q413.89-3.84 413.89-4.93L413.89-4.93L413.89-4.93Q413.89-5.57 413.60-6.43L413.60-6.43L413.60-6.43Q413.31-7.30 413.18-7.68L413.18-7.68L410.43-15.81L397.06-15.81L395.65-11.58L395.65-11.58Q394.37-7.62 394.37-5.50L394.37-5.50L394.37-5.50Q394.37-3.39 395.20-1.98L395.20-1.98L395.65-0.96L394.56 0L383.94 0ZM403.71-35.71L398.34-19.46L409.28-19.46L403.71-35.71ZM428.54 0L427.97-1.79L429.06-2.11L429.06-2.11Q430.59-2.37 431.07-3.30L431.07-3.30L431.07-3.30Q431.55-4.22 431.55-6.46L431.55-6.46L431.55-22.72L431.55-22.72Q431.55-23.42 431.30-23.71L431.30-23.71L431.30-23.71Q431.04-24 430.40-24L430.40-24L427.90-24L427.33-25.54L427.33-25.54Q428.99-27.07 431.17-28.03L431.17-28.03L431.17-28.03Q433.34-28.99 435.01-28.99L435.01-28.99L435.01-28.99Q435.84-28.99 436.35-28.48L436.35-28.48L436.35-28.48Q436.86-27.97 436.86-27.20L436.86-27.20L436.86-20.86L437.18-20.86L437.18-20.86Q438.21-24.77 440.29-27.14L440.29-27.14L440.29-27.14Q442.37-29.50 444.80-29.50L444.80-29.50L444.80-29.50Q447.23-29.50 448.80-27.94L448.80-27.94L448.80-27.94Q450.37-26.37 450.37-23.62L450.37-23.62L450.37-23.62Q450.37-21.44 448.77-19.97L448.77-19.97L448.77-19.97Q447.17-18.50 444.74-18.50L444.74-18.50L444.74-18.50Q443.58-18.50 443.58-19.07L443.58-19.07L443.58-19.07Q443.58-19.26 444.03-19.97L444.03-19.97L444.03-19.97Q444.48-20.67 444.80-21.38L444.80-21.38L444.80-21.38Q445.12-22.08 445.12-23.04L445.12-23.04L445.12-23.04Q445.12-24.13 444.61-24.74L444.61-24.74L444.61-24.74Q444.10-25.34 443.26-25.34L443.26-25.34L443.26-25.34Q441.92-25.34 440.45-23.68L440.45-23.68L440.45-23.68Q438.98-22.02 437.92-18.37L437.92-18.37L437.92-18.37Q436.86-14.72 436.86-9.09L436.86-9.09L436.86-9.09Q436.86-6.46 437.28-4.83L437.28-4.83L437.28-4.83Q437.70-3.20 438.72-1.79L438.72-1.79L439.42-0.90L438.72 0L428.54 0ZM461.12 0.83L461.12 0.83Q458.75 0.83 457.41-0.67L457.41-0.67L457.41-0.67Q456.06-2.18 456.06-4.80L456.06-4.80L456.06-25.22L451.01-25.22L451.01-25.22Q451.01-26.75 451.26-27.23L451.26-27.23L451.26-27.23Q451.52-27.71 452.42-27.97L452.42-27.97L452.42-27.97Q455.49-28.74 456.77-30.53L456.77-30.53L456.77-30.53Q458.05-32.32 458.69-35.26L458.69-35.26L458.69-35.26Q458.82-36.16 459.30-36.38L459.30-36.38L459.30-36.38Q459.78-36.61 461.44-36.61L461.44-36.61L461.44-28.80L468.93-28.80L468.93-28.80Q468.93-27.58 468.58-26.62L468.58-26.62L468.58-26.62Q468.22-25.66 467.65-25.22L467.65-25.22L461.44-25.22L461.44-6.46L461.44-6.46Q461.44-4.67 461.92-3.94L461.92-3.94L461.92-3.94Q462.40-3.20 463.62-3.20L463.62-3.20L463.62-3.20Q465.34-3.20 467.52-5.06L467.52-5.06L468.61-3.52L468.61-3.52Q467.14-1.60 465.02-0.38L465.02-0.38L465.02-0.38Q462.91 0.83 461.12 0.83L461.12 0.83ZM478.91-34.37L478.91-34.37Q477.95-34.37 476.67-35.71L476.67-35.71L476.67-35.71Q475.39-37.06 475.39-38.14L475.39-38.14L475.39-38.14Q475.39-39.23 476.64-40.58L476.64-40.58L476.64-40.58Q477.89-41.92 478.91-41.92L478.91-41.92L478.91-41.92Q480.00-41.92 481.28-40.58L481.28-40.58L481.28-40.58Q482.56-39.23 482.56-38.14L482.56-38.14L482.56-38.14Q482.56-37.06 481.28-35.71L481.28-35.71L481.28-35.71Q480.00-34.37 478.91-34.37L478.91-34.37ZM480.83 0.83L480.83 0.83Q478.46 0.83 477.41-0.61L477.41-0.61L477.41-0.61Q476.35-2.05 476.35-5.31L476.35-5.31L476.35-23.23L476.35-23.23Q476.35-24 476.10-24.32L476.10-24.32L476.10-24.32Q475.84-24.64 475.20-24.64L475.20-24.64L472.58-24.64L472.13-26.05L472.13-26.05Q473.79-27.58 475.94-28.54L475.94-28.54L475.94-28.54Q478.08-29.50 479.68-29.50L479.68-29.50L479.68-29.50Q480.51-29.50 481.06-29.02L481.06-29.02L481.06-29.02Q481.60-28.54 481.60-27.78L481.60-27.78L481.60-5.12L481.60-5.12Q481.60-3.14 483.33-3.14L483.33-3.14L483.33-3.14Q484.67-3.14 486.27-4.35L486.27-4.35L487.36-2.88L487.36-2.88Q485.76-1.22 484.00-0.19L484.00-0.19L484.00-0.19Q482.24 0.83 480.83 0.83L480.83 0.83ZM501.38 0.83L501.38 0.83Q497.02 0.83 494.14-1.18L494.14-1.18L494.14-1.18Q491.26-3.20 491.26-6.46L491.26-6.46L491.26-6.46Q491.26-8.38 492.64-9.70L492.64-9.70L492.64-9.70Q494.02-11.01 496.13-11.01L496.13-11.01L496.13-11.01Q496.58-11.01 496.96-10.82L496.96-10.82L496.96-10.82Q497.34-10.62 497.34-10.30L497.34-10.30L497.34-10.30Q497.34-10.11 496.96-9.18L496.96-9.18L496.96-9.18Q496.58-8.26 496.58-6.98L496.58-6.98L496.58-6.98Q496.58-4.61 498.27-3.33L498.27-3.33L498.27-3.33Q499.97-2.05 502.08-2.05L502.08-2.05L502.08-2.05Q504.51-2.05 506.05-3.33L506.05-3.33L506.05-3.33Q507.58-4.61 507.58-6.66L507.58-6.66L507.58-6.66Q507.58-8.51 505.95-9.73L505.95-9.73L505.95-9.73Q504.32-10.94 501.25-12.22L501.25-12.22L501.25-12.22Q498.43-13.44 496.54-14.53L496.54-14.53L496.54-14.53Q494.66-15.62 493.31-17.41L493.31-17.41L493.31-17.41Q491.97-19.20 491.97-21.76L491.97-21.76L491.97-21.76Q491.97-25.15 494.98-27.33L494.98-27.33L494.98-27.33Q497.98-29.50 502.53-29.50L502.53-29.50L502.53-29.50Q506.69-29.50 509.38-27.94L509.38-27.94L509.38-27.94Q512.06-26.37 512.06-23.62L512.06-23.62L512.06-23.62Q512.06-21.38 510.72-19.97L510.72-19.97L510.72-19.97Q509.38-18.56 507.20-18.56L507.20-18.56L507.20-18.56Q505.92-18.56 505.92-19.39L505.92-19.39L505.92-19.39Q505.92-19.65 506.40-20.54L506.40-20.54L506.40-20.54Q506.88-21.44 506.88-22.59L506.88-22.59L506.88-22.59Q506.88-24.64 505.41-25.70L505.41-25.70L505.41-25.70Q503.94-26.75 502.08-26.75L502.08-26.75L502.08-26.75Q499.71-26.75 498.34-25.60L498.34-25.60L498.34-25.60Q496.96-24.45 496.96-22.59L496.96-22.59L496.96-22.59Q496.96-20.42 498.75-19.04L498.75-19.04L498.75-19.04Q500.54-17.66 503.81-16.45L503.81-16.45L503.81-16.45Q506.62-15.23 508.48-14.21L508.48-14.21L508.48-14.21Q510.34-13.18 511.62-11.62L511.62-11.62L511.62-11.62Q512.90-10.05 512.90-7.94L512.90-7.94L512.90-7.94Q512.90-3.97 509.73-1.57L509.73-1.57L509.73-1.57Q506.56 0.83 501.38 0.83L501.38 0.83ZM526.78 0.83L526.78 0.83Q524.42 0.83 523.07-0.67L523.07-0.67L523.07-0.67Q521.73-2.18 521.73-4.80L521.73-4.80L521.73-25.22L516.67-25.22L516.67-25.22Q516.67-26.75 516.93-27.23L516.93-27.23L516.93-27.23Q517.18-27.71 518.08-27.97L518.08-27.97L518.08-27.97Q521.15-28.74 522.43-30.53L522.43-30.53L522.43-30.53Q523.71-32.32 524.35-35.26L524.35-35.26L524.35-35.26Q524.48-36.16 524.96-36.38L524.96-36.38L524.96-36.38Q525.44-36.61 527.10-36.61L527.10-36.61L527.10-28.80L534.59-28.80L534.59-28.80Q534.59-27.58 534.24-26.62L534.24-26.62L534.24-26.62Q533.89-25.66 533.31-25.22L533.31-25.22L527.10-25.22L527.10-6.46L527.10-6.46Q527.10-4.67 527.58-3.94L527.58-3.94L527.58-3.94Q528.06-3.20 529.28-3.20L529.28-3.20L529.28-3.20Q531.01-3.20 533.18-5.06L533.18-5.06L534.27-3.52L534.27-3.52Q532.80-1.60 530.69-0.38L530.69-0.38L530.69-0.38Q528.58 0.83 526.78 0.83L526.78 0.83ZM539.26 0L538.69-1.79L539.78-2.11L539.78-2.11Q541.31-2.37 541.79-3.30L541.79-3.30L541.79-3.30Q542.27-4.22 542.27-6.46L542.27-6.46L542.27-22.72L542.27-22.72Q542.27-23.42 542.02-23.71L542.02-23.71L542.02-23.71Q541.76-24 541.12-24L541.12-24L538.62-24L538.05-25.54L538.05-25.54Q539.71-27.07 541.89-28.03L541.89-28.03L541.89-28.03Q544.06-28.99 545.73-28.99L545.73-28.99L545.73-28.99Q546.56-28.99 547.07-28.48L547.07-28.48L547.07-28.48Q547.58-27.97 547.58-27.20L547.58-27.20L547.58-20.86L547.90-20.86L547.90-20.86Q548.93-24.77 551.01-27.14L551.01-27.14L551.01-27.14Q553.09-29.50 555.52-29.50L555.52-29.50L555.52-29.50Q557.95-29.50 559.52-27.94L559.52-27.94L559.52-27.94Q561.09-26.37 561.09-23.62L561.09-23.62L561.09-23.62Q561.09-21.44 559.49-19.97L559.49-19.97L559.49-19.97Q557.89-18.50 555.46-18.50L555.46-18.50L555.46-18.50Q554.30-18.50 554.30-19.07L554.30-19.07L554.30-19.07Q554.30-19.26 554.75-19.97L554.75-19.97L554.75-19.97Q555.20-20.67 555.52-21.38L555.52-21.38L555.52-21.38Q555.84-22.08 555.84-23.04L555.84-23.04L555.84-23.04Q555.84-24.13 555.33-24.74L555.33-24.74L555.33-24.74Q554.82-25.34 553.98-25.34L553.98-25.34L553.98-25.34Q552.64-25.34 551.17-23.68L551.17-23.68L551.17-23.68Q549.70-22.02 548.64-18.37L548.64-18.37L548.64-18.37Q547.58-14.72 547.58-9.09L547.58-9.09L547.58-9.09Q547.58-6.46 548-4.83L548-4.83L548-4.83Q548.42-3.20 549.44-1.79L549.44-1.79L550.14-0.90L549.44 0L539.26 0ZM577.98 16.19L577.98 16.19Q574.78 16.19 572.51 15.01L572.51 15.01L572.51 15.01Q570.24 13.82 569.12 11.90L569.12 11.90L569.12 11.90Q568.00 9.98 568.00 7.87L568.00 7.87L568.00 7.87Q568.00 4.93 569.98 2.88L569.98 2.88L569.98 2.88Q571.97 0.83 575.42 0.83L575.42 0.83L575.42 0.83Q575.94 0.83 576.19 0.99L576.19 0.99L576.19 0.99Q576.45 1.15 576.45 1.41L576.45 1.41L576.45 1.41Q576.45 1.66 575.65 2.53L575.65 2.53L575.65 2.53Q574.85 3.39 574.24 4.61L574.24 4.61L574.24 4.61Q573.63 5.82 573.63 7.68L573.63 7.68L573.63 7.68Q573.63 9.98 575.01 11.55L575.01 11.55L575.01 11.55Q576.38 13.12 578.69 13.12L578.69 13.12L578.69 13.12Q582.27 13.12 584.00 10.14L584.00 10.14L584.00 10.14Q585.73 7.17 585.73 2.18L585.73 2.18L585.73-6.40L585.73-6.40Q584.32-3.84 581.66-2.37L581.66-2.37L581.66-2.37Q579.01-0.90 575.74-0.90L575.74-0.90L575.74-0.90Q571.65-0.90 569.38-3.42L569.38-3.42L569.38-3.42Q567.10-5.95 567.10-10.50L567.10-10.50L567.10-23.30L567.10-23.30Q567.10-24.06 566.85-24.38L566.85-24.38L566.85-24.38Q566.59-24.70 565.95-24.70L565.95-24.70L563.33-24.70L562.88-26.11L562.88-26.11Q564.35-27.65 566.50-28.61L566.50-28.61L566.50-28.61Q568.64-29.57 570.43-29.57L570.43-29.57L570.43-29.57Q571.26-29.57 571.81-29.09L571.81-29.09L571.81-29.09Q572.35-28.61 572.35-27.84L572.35-27.84L572.35-11.84L572.35-11.84Q572.35-8.38 573.76-6.59L573.76-6.59L573.76-6.59Q575.17-4.80 577.79-4.80L577.79-4.80L577.79-4.80Q581.70-4.80 583.87-7.68L583.87-7.68L583.87-7.68Q586.05-10.56 586.05-15.81L586.05-15.81L586.05-15.81Q586.05-20.61 585.66-22.91L585.66-22.91L585.66-22.91Q585.28-25.22 583.74-27.14L583.74-27.14L583.10-28.03L583.74-28.86L590.85-29.57L590.85 1.28L590.85 1.28Q590.85 8.38 587.39 12.29L587.39 12.29L587.39 12.29Q583.94 16.19 577.98 16.19L577.98 16.19Z" fill="#63bcc7"></path></g></g><style>text {
  font-size: 64px;
  font-family: Arial Black;
  dominant-baseline: central;
  text-anchor: middle;
}</style></svg>