<?xml version="1.0" encoding="utf-8"?>
<svg xmlns="http://www.w3.org/2000/svg" viewBox="0 0 500 500">
  <defs>
    <filter id="editing-extrude-glow">
      <feFlood flood-color="#80a352" result="flood-1"/>
      <feMorphology operator="erode" radius="1" in="SourceAlpha" result="erode"/>
      <feComposite operator="in" in="flood-1" in2="erode" result="comp1"/>
      <feConvolveMatrix order="0,0" divisor="1" in="comp1" result="convolve" kernelMatrix=""/>
      <feOffset dx="0" dy="0" in="convolve" result="extrude"/>
      <feComposite operator="in" in="flood-1" in2="extrude" result="comp-extrude"/>
      <feFlood flood-color="#cfd7cc" result="flood-2"/>
      <feComposite operator="in" in="flood-2" in2="SourceAlpha" result="comp2"/>
      <feMorphology operator="dilate" radius="1" in="comp2" result="dilate"/>
      <feOffset dx="0" dy="0" in="dilate" result="offset"/>
      <feGaussianBlur in="offset" stdDeviation="5.8" result="blur"/>
      <feComponentTransfer in="blur" result="shadow">
        <feFuncA type="linear" slope="0.8" intercept="-0.2"/>
      </feComponentTransfer>
      <feMerge>
        <feMergeNode in="shadow"/>
        <feMergeNode in="comp-extrude"/>
        <feMergeNode in="SourceGraphic"/>
      </feMerge>
    </filter>
  </defs>
  <g filter="url(#editing-extrude-glow)" transform="matrix(1, 0, 0, 1, 0.260657, 12.303235)">
    <g transform="translate(76.53000211715698, 104.30999946594238)">
      <path d="M2.69 0L1.98-1.98L3.33-2.30L3.33-2.30Q5.57-3.01 6.27-4L6.27-4L6.27-4Q6.98-4.99 6.98-7.68L6.98-7.68L6.98-33.92L6.98-33.92Q6.98-36.61 6.24-37.66L6.24-37.66L6.24-37.66Q5.50-38.72 3.33-39.30L3.33-39.30L1.98-39.62L2.69-41.60L12.03-41.60L34.18-8.77L34.18-33.92L34.18-33.92Q34.18-36.54 33.41-37.63L33.41-37.63L33.41-37.63Q32.64-38.72 30.46-39.30L30.46-39.30L29.06-39.62L29.89-41.60L40.77-41.60L41.60-40.70L40.77-39.62L40.77-39.62Q39.36-37.76 38.78-35.62L38.78-35.62L38.78-35.62Q38.21-33.47 38.21-30.02L38.21-30.02L38.21-5.12L38.21-5.12Q38.21-3.33 39.04-1.98L39.04-1.98L39.74-0.96L39.04 0L33.22 0L11.14-32.83L11.14-11.65L11.14-11.65Q11.14-8.06 11.68-5.95L11.68-5.95L11.68-5.95Q12.22-3.84 13.70-1.98L13.70-1.98L14.46-0.96L13.70 0L2.69 0ZM55.68 0.83L55.68 0.83Q52.86 0.83 50.46-0.80L50.46-0.80L50.46-0.80Q48.06-2.43 46.62-5.60L46.62-5.60L46.62-5.60Q45.18-8.77 45.18-13.31L45.18-13.31L45.18-13.31Q45.18-20.80 49.25-25.15L49.25-25.15L49.25-25.15Q53.31-29.50 60.22-29.50L60.22-29.50L60.22-29.50Q62.53-29.50 66.50-28.80L66.50-28.80L66.50-28.80Q69.44-28.29 71.81-28.10L71.81-28.10L72.58-27.39L71.74-26.30L71.74-26.30Q71.30-25.54 71.14-25.12L71.14-25.12L71.14-25.12Q70.98-24.70 70.98-24L70.98-24L70.98-5.12L70.98-5.12Q70.98-3.33 72.83-3.33L72.83-3.33L72.83-3.33Q74.24-3.33 75.71-4.35L75.71-4.35L76.80-2.88L76.80-2.88Q75.26-1.15 73.54-0.16L73.54-0.16L73.54-0.16Q71.81 0.83 70.40 0.83L70.40 0.83L70.40 0.83Q67.97 0.83 66.88-0.61L66.88-0.61L66.88-0.61Q65.79-2.05 65.79-5.31L65.79-5.31L65.79-5.31Q63.49-1.92 61.02-0.54L61.02-0.54L61.02-0.54Q58.56 0.83 55.68 0.83L55.68 0.83ZM57.92-3.71L57.92-3.71Q62.78-3.71 65.79-8.96L65.79-8.96L65.79-24.64L65.79-24.64Q63.30-26.30 60.16-26.30L60.16-26.30L60.16-26.30Q56.00-26.30 53.66-23.20L53.66-23.20L53.66-23.20Q51.33-20.10 51.33-14.40L51.33-14.40L51.33-14.40Q51.33-8.90 53.22-6.30L53.22-6.30L53.22-6.30Q55.10-3.71 57.92-3.71L57.92-3.71ZM94.34 0.83L94.34 0.83Q87.81 0.83 83.97-3.30L83.97-3.30L83.97-3.30Q80.13-7.42 80.13-14.40L80.13-14.40L80.13-14.40Q80.13-21.38 83.97-25.44L83.97-25.44L83.97-25.44Q87.81-29.50 94.34-29.50L94.34-29.50L94.34-29.50Q98.62-29.50 101.82-27.65L101.82-27.65L101.82-27.65Q105.02-25.79 106.75-22.40L106.75-22.40L106.75-22.40Q108.48-19.01 108.48-14.40L108.48-14.40L108.48-14.40Q108.48-9.79 106.72-6.34L106.72-6.34L106.72-6.34Q104.96-2.88 101.76-1.02L101.76-1.02L101.76-1.02Q98.56 0.83 94.34 0.83L94.34 0.83ZM94.21-2.30L94.21-2.30Q97.86-2.30 100.13-5.60L100.13-5.60L100.13-5.60Q102.40-8.90 102.40-14.27L102.40-14.27L102.40-14.27Q102.40-17.02 101.63-19.81L101.63-19.81L101.63-19.81Q100.86-22.59 99.10-24.54L99.10-24.54L99.10-24.54Q97.34-26.50 94.53-26.50L94.53-26.50L94.53-26.50Q90.75-26.50 88.48-23.17L88.48-23.17L88.48-23.17Q86.21-19.84 86.21-14.34L86.21-14.34L86.21-14.34Q86.21-8.83 88.35-5.57L88.35-5.57L88.35-5.57Q90.50-2.30 94.21-2.30L94.21-2.30ZM157.95 0.83L157.95 0.83Q155.58 0.83 154.53-0.61L154.53-0.61L154.53-0.61Q153.47-2.05 153.47-5.31L153.47-5.31L153.47-19.14L153.47-19.14Q153.47-25.09 149.18-25.09L149.18-25.09L149.18-25.09Q146.82-25.09 144.93-23.20L144.93-23.20L144.93-23.20Q143.04-21.31 141.95-17.89L141.95-17.89L141.95-17.89Q140.86-14.46 140.80-9.98L140.80-9.98L140.80-9.28L140.80-9.28Q140.80-6.34 141.28-4.54L141.28-4.54L141.28-4.54Q141.76-2.75 143.30-0.90L143.30-0.90L142.59 0L135.62 0L135.62-19.14L135.62-19.14Q135.62-22.08 134.50-23.58L134.50-23.58L134.50-23.58Q133.38-25.09 131.20-25.09L131.20-25.09L131.20-25.09Q128.70-25.09 126.82-23.10L126.82-23.10L126.82-23.10Q124.93-21.12 123.90-17.54L123.90-17.54L123.90-17.54Q122.88-13.95 122.88-9.28L122.88-9.28L122.88-9.28Q122.88-6.59 123.30-4.93L123.30-4.93L123.30-4.93Q123.71-3.26 124.74-1.79L124.74-1.79L125.44-0.90L124.74 0L114.56 0L113.98-1.79L115.07-2.11L115.07-2.11Q116.61-2.37 117.09-3.30L117.09-3.30L117.09-3.30Q117.57-4.22 117.57-6.46L117.57-6.46L117.57-22.72L117.57-22.72Q117.57-23.42 117.31-23.71L117.31-23.71L117.31-23.71Q117.06-24 116.42-24L116.42-24L113.92-24L113.34-25.54L113.34-25.54Q115.01-27.07 117.18-28.03L117.18-28.03L117.18-28.03Q119.36-28.99 121.02-28.99L121.02-28.99L121.02-28.99Q121.86-28.99 122.37-28.48L122.37-28.48L122.37-28.48Q122.88-27.97 122.88-27.20L122.88-27.20L122.88-20.86L122.88-20.86Q124.35-24.70 127.26-27.10L127.26-27.10L127.26-27.10Q130.18-29.50 133.38-29.50L133.38-29.50L133.38-29.50Q136.96-29.50 138.75-27.42L138.75-27.42L138.75-27.42Q140.54-25.34 140.80-20.86L140.80-20.86L140.80-20.86Q142.27-24.64 145.22-27.07L145.22-27.07L145.22-27.07Q148.16-29.50 151.30-29.50L151.30-29.50L151.30-29.50Q155.20-29.50 156.96-27.01L156.96-27.01L156.96-27.01Q158.72-24.51 158.72-19.14L158.72-19.14L158.72-5.12L158.72-5.12Q158.72-3.14 160.38-3.14L160.38-3.14L160.38-3.14Q161.86-3.14 163.26-4.35L163.26-4.35L164.42-2.88L164.42-2.88Q162.88-1.15 161.15-0.16L161.15-0.16L161.15-0.16Q159.42 0.83 157.95 0.83L157.95 0.83ZM174.40-34.37L174.40-34.37Q173.44-34.37 172.16-35.71L172.16-35.71L172.16-35.71Q170.88-37.06 170.88-38.14L170.88-38.14L170.88-38.14Q170.88-39.23 172.13-40.58L172.13-40.58L172.13-40.58Q173.38-41.92 174.40-41.92L174.40-41.92L174.40-41.92Q175.49-41.92 176.77-40.58L176.77-40.58L176.77-40.58Q178.05-39.23 178.05-38.14L178.05-38.14L178.05-38.14Q178.05-37.06 176.77-35.71L176.77-35.71L176.77-35.71Q175.49-34.37 174.40-34.37L174.40-34.37ZM176.32 0.83L176.32 0.83Q173.95 0.83 172.90-0.61L172.90-0.61L172.90-0.61Q171.84-2.05 171.84-5.31L171.84-5.31L171.84-23.23L171.84-23.23Q171.84-24 171.58-24.32L171.58-24.32L171.58-24.32Q171.33-24.64 170.69-24.64L170.69-24.64L168.06-24.64L167.62-26.05L167.62-26.05Q169.28-27.58 171.42-28.54L171.42-28.54L171.42-28.54Q173.57-29.50 175.17-29.50L175.17-29.50L175.17-29.50Q176.00-29.50 176.54-29.02L176.54-29.02L176.54-29.02Q177.09-28.54 177.09-27.78L177.09-27.78L177.09-5.12L177.09-5.12Q177.09-3.14 178.82-3.14L178.82-3.14L178.82-3.14Q180.16-3.14 181.76-4.35L181.76-4.35L182.85-2.88L182.85-2.88Q181.25-1.22 179.49-0.19L179.49-0.19L179.49-0.19Q177.73 0.83 176.32 0.83L176.32 0.83ZM225.09 16.19L225.09 16.19Q221.70 16.19 219.30 15.01L219.30 15.01L219.30 15.01Q216.90 13.82 215.71 11.90L215.71 11.90L215.71 11.90Q214.53 9.98 214.53 7.87L214.53 7.87L214.53 7.87Q214.53 4.93 216.48 2.88L216.48 2.88L216.48 2.88Q218.43 0.83 221.89 0.83L221.89 0.83L221.89 0.83Q222.98 0.83 222.98 1.41L222.98 1.41L222.98 1.41Q222.98 1.66 222.14 2.53L222.14 2.53L222.14 2.53Q221.31 3.39 220.70 4.61L220.70 4.61L220.70 4.61Q220.10 5.82 220.10 7.68L220.10 7.68L220.10 7.68Q220.10 10.05 221.70 11.58L221.70 11.58L221.70 11.58Q223.30 13.12 226.05 13.12L226.05 13.12L226.05 13.12Q229.89 13.12 231.78 10.21L231.78 10.21L231.78 10.21Q233.66 7.30 233.66 0.70L233.66 0.70L233.66-4.80L233.66-4.80Q228.99-0.96 223.42-0.96L223.42-0.96L223.42-0.96Q217.54-0.96 213.50-3.71L213.50-3.71L213.50-3.71Q209.47-6.46 207.46-11.20L207.46-11.20L207.46-11.20Q205.44-15.94 205.44-21.82L205.44-21.82L205.44-21.82Q205.44-27.46 207.58-32.13L207.58-32.13L207.58-32.13Q209.73-36.80 214.05-39.62L214.05-39.62L214.05-39.62Q218.37-42.43 224.58-42.43L224.58-42.43L224.58-42.43Q228.61-42.43 231.81-41.28L231.81-41.28L231.81-41.28Q235.01-40.13 236.80-38.05L236.80-38.05L236.80-38.05Q238.59-35.97 238.59-33.34L238.59-33.34L238.59-33.34Q238.59-30.34 236.83-28.42L236.83-28.42L236.83-28.42Q235.07-26.50 232.38-26.50L232.38-26.50L232.38-26.50Q231.55-26.50 231.39-26.62L231.39-26.62L231.39-26.62Q231.23-26.75 231.23-27.26L231.23-27.26L231.23-27.26Q231.23-27.46 231.71-28.26L231.71-28.26L231.71-28.26Q232.19-29.06 232.51-30.08L232.51-30.08L232.51-30.08Q232.83-31.10 232.83-32.51L232.83-32.51L232.83-32.51Q232.83-35.52 230.56-37.38L230.56-37.38L230.56-37.38Q228.29-39.23 224.58-39.23L224.58-39.23L224.58-39.23Q220.03-39.23 217.15-36.61L217.15-36.61L217.15-36.61Q214.27-33.98 212.99-30.08L212.99-30.08L212.99-30.08Q211.71-26.18 211.71-22.08L211.71-22.08L211.71-22.08Q211.71-17.28 213.18-13.31L213.18-13.31L213.18-13.31Q214.66-9.34 217.44-7.04L217.44-7.04L217.44-7.04Q220.22-4.74 223.87-4.74L223.87-4.74L223.87-4.74Q229.76-4.74 233.66-8.64L233.66-8.64L233.66-11.58L233.66-11.58Q233.66-14.21 232.86-15.26L232.86-15.26L232.86-15.26Q232.06-16.32 229.82-16.96L229.82-16.96L228.61-17.34L229.25-19.39L241.47-19.39L242.18-18.37L241.47-17.34L241.47-17.34Q240-15.42 239.39-13.25L239.39-13.25L239.39-13.25Q238.78-11.07 238.78-7.62L238.78-7.62L238.78-0.96L238.78-0.96Q238.78 16.19 225.09 16.19L225.09 16.19ZM259.33 0.83L259.33 0.83Q255.30 0.83 252.29-1.02L252.29-1.02L252.29-1.02Q249.28-2.88 247.62-6.24L247.62-6.24L247.62-6.24Q245.95-9.60 245.95-14.02L245.95-14.02L245.95-14.02Q245.95-18.62 247.81-22.14L247.81-22.14L247.81-22.14Q249.66-25.66 253.09-27.58L253.09-27.58L253.09-27.58Q256.51-29.50 260.99-29.50L260.99-29.50L260.99-29.50Q265.73-29.50 268.32-27.01L268.32-27.01L268.32-27.01Q270.91-24.51 270.91-20.99L270.91-20.99L270.91-20.99Q270.91-18.56 269.60-16.32L269.60-16.32L269.60-16.32Q268.29-14.08 265.76-12.67L265.76-12.67L265.76-12.67Q263.23-11.26 259.84-11.26L259.84-11.26L259.84-11.26Q257.92-11.26 255.68-11.94L255.68-11.94L255.68-11.94Q253.44-12.61 253.44-13.95L253.44-13.95L253.44-13.95Q253.44-14.46 253.70-14.85L253.70-14.85L253.70-14.85Q253.95-15.23 254.27-15.23L254.27-15.23L254.27-15.23Q254.46-15.23 255.46-14.88L255.46-14.88L255.46-14.88Q256.45-14.53 258.05-14.53L258.05-14.53L258.05-14.53Q261.57-14.53 263.49-16.45L263.49-16.45L263.49-16.45Q265.41-18.37 265.41-21.06L265.41-21.06L265.41-21.06Q265.41-23.36 263.90-25.02L263.90-25.02L263.90-25.02Q262.40-26.69 259.90-26.69L259.90-26.69L259.90-26.69Q256.13-26.69 254.05-23.39L254.05-23.39L254.05-23.39Q251.97-20.10 251.97-14.02L251.97-14.02L251.97-14.02Q251.97-8.83 254.18-5.92L254.18-5.92L254.18-5.92Q256.38-3.01 260.54-3.01L260.54-3.01L260.54-3.01Q265.66-3.01 268.99-6.34L268.99-6.34L268.99-6.34Q269.18-6.53 269.50-6.53L269.50-6.53L269.50-6.53Q270.02-6.53 270.56-6.02L270.56-6.02L270.56-6.02Q271.10-5.50 271.10-4.93L271.10-4.93L271.10-4.93Q271.10-4.74 270.98-4.58L270.98-4.58L270.98-4.58Q270.85-4.42 270.85-4.35L270.85-4.35L270.85-4.35Q268.67-1.79 265.70-0.48L265.70-0.48L265.70-0.48Q262.72 0.83 259.33 0.83L259.33 0.83ZM277.57 0L276.99-1.79L278.08-2.11L278.08-2.11Q279.62-2.37 280.10-3.30L280.10-3.30L280.10-3.30Q280.58-4.22 280.58-6.46L280.58-6.46L280.58-22.72L280.58-22.72Q280.58-23.42 280.32-23.71L280.32-23.71L280.32-23.71Q280.06-24 279.42-24L279.42-24L276.93-24L276.35-25.54L276.35-25.54Q278.02-27.07 280.19-28.03L280.19-28.03L280.19-28.03Q282.37-28.99 284.03-28.99L284.03-28.99L284.03-28.99Q284.86-28.99 285.38-28.48L285.38-28.48L285.38-28.48Q285.89-27.97 285.89-27.20L285.89-27.20L285.89-20.86L286.21-20.86L286.21-20.86Q287.23-24.77 289.31-27.14L289.31-27.14L289.31-27.14Q291.39-29.50 293.82-29.50L293.82-29.50L293.82-29.50Q296.26-29.50 297.82-27.94L297.82-27.94L297.82-27.94Q299.39-26.37 299.39-23.62L299.39-23.62L299.39-23.62Q299.39-21.44 297.79-19.97L297.79-19.97L297.79-19.97Q296.19-18.50 293.76-18.50L293.76-18.50L293.76-18.50Q292.61-18.50 292.61-19.07L292.61-19.07L292.61-19.07Q292.61-19.26 293.06-19.97L293.06-19.97L293.06-19.97Q293.50-20.67 293.82-21.38L293.82-21.38L293.82-21.38Q294.14-22.08 294.14-23.04L294.14-23.04L294.14-23.04Q294.14-24.13 293.63-24.74L293.63-24.74L293.63-24.74Q293.12-25.34 292.29-25.34L292.29-25.34L292.29-25.34Q290.94-25.34 289.47-23.68L289.47-23.68L289.47-23.68Q288-22.02 286.94-18.37L286.94-18.37L286.94-18.37Q285.89-14.72 285.89-9.09L285.89-9.09L285.89-9.09Q285.89-6.46 286.30-4.83L286.30-4.83L286.30-4.83Q286.72-3.20 287.74-1.79L287.74-1.79L288.45-0.90L287.74 0L277.57 0ZM310.14 0.83L310.14 0.83Q307.78 0.83 306.43-0.67L306.43-0.67L306.43-0.67Q305.09-2.18 305.09-4.80L305.09-4.80L305.09-25.22L300.03-25.22L300.03-25.22Q300.03-26.75 300.29-27.23L300.29-27.23L300.29-27.23Q300.54-27.71 301.44-27.97L301.44-27.97L301.44-27.97Q304.51-28.74 305.79-30.53L305.79-30.53L305.79-30.53Q307.07-32.32 307.71-35.26L307.71-35.26L307.71-35.26Q307.84-36.16 308.32-36.38L308.32-36.38L308.32-36.38Q308.80-36.61 310.46-36.61L310.46-36.61L310.46-28.80L317.95-28.80L317.95-28.80Q317.95-27.58 317.60-26.62L317.60-26.62L317.60-26.62Q317.25-25.66 316.67-25.22L316.67-25.22L310.46-25.22L310.46-6.46L310.46-6.46Q310.46-4.67 310.94-3.94L310.94-3.94L310.94-3.94Q311.42-3.20 312.64-3.20L312.64-3.20L312.64-3.20Q314.37-3.20 316.54-5.06L316.54-5.06L317.63-3.52L317.63-3.52Q316.16-1.60 314.05-0.38L314.05-0.38L314.05-0.38Q311.94 0.83 310.14 0.83L310.14 0.83ZM343.42 1.34L343.42 1.34Q342.14 0.58 340.67 0.29L340.67 0.29L340.67 0.29Q339.20 0 336.45 0L336.45 0L321.60 0L321.02-1.79L337.22-25.41L328.58-25.41L328.58-25.41Q326.34-25.41 325.47-24.93L325.47-24.93L325.47-24.93Q324.61-24.45 324.29-22.98L324.29-22.98L323.58-19.97L321.79-20.54L321.79-29.44L322.43-30.27L322.43-30.27Q323.71-29.38 325.18-29.09L325.18-29.09L325.18-29.09Q326.66-28.80 329.41-28.80L329.41-28.80L343.87-28.80L343.87-28.80Q344.96-27.78 344.96-26.30L344.96-26.30L343.42-25.34L328.19-3.33L337.22-3.33L337.22-3.33Q339.46-3.33 340.42-3.84L340.42-3.84L340.42-3.84Q341.38-4.35 341.63-5.82L341.63-5.82L342.27-8.83L344.13-8.26L344.13 0.70L343.42 1.34Z" fill="#63bcc7"/>
    </g>
  </g>
  <g filter="url(#editing-extrude-glow)" transform="matrix(1, 0, 0, 1, 0.955831, 77.649124)">
    <g transform="translate(74.63999700546265, 105.78499794006348)">
      <path d="M3.33 0L2.56-0.96L3.33-1.98L3.33-1.98Q4.80-3.90 5.41-6.02L5.41-6.02L5.41-6.02Q6.02-8.13 6.02-11.65L6.02-11.65L6.02-30.02L6.02-30.02Q6.02-33.41 5.41-35.55L5.41-35.55L5.41-35.55Q4.80-37.70 3.33-39.62L3.33-39.62L2.56-40.70L3.33-41.60L20.48-41.60L20.48-41.60Q23.10-41.60 24.67-41.89L24.67-41.89L24.67-41.89Q26.24-42.18 27.20-42.82L27.20-42.82L28.16-43.58L29.06-42.82L29.06-32.51L27.20-31.81L26.75-33.22L26.75-33.22Q26.18-35.39 25.54-36.45L25.54-36.45L25.54-36.45Q24.90-37.50 23.74-37.95L23.74-37.95L23.74-37.95Q22.59-38.40 20.48-38.40L20.48-38.40L15.36-38.40L15.36-38.40Q13.12-38.40 12.42-37.50L12.42-37.50L12.42-37.50Q11.71-36.61 11.71-33.92L11.71-33.92L11.71-22.21L18.56-22.21L18.56-22.21Q19.97-22.21 21.02-22.78L21.02-22.78L21.02-22.78Q22.08-23.36 23.04-24.90L23.04-24.90L23.55-25.54L24.77-24.90L24.77-14.91L22.72-14.27L22.46-15.55L22.46-15.55Q21.89-17.54 20.54-18.24L20.54-18.24L20.54-18.24Q19.20-18.94 16.06-18.94L16.06-18.94L11.71-18.94L11.71-7.68L11.71-7.68Q11.71-4.99 12.42-4L12.42-4L12.42-4Q13.12-3.01 15.36-2.30L15.36-2.30L16.77-1.98L16.06 0L3.33 0ZM40.51-34.37L40.51-34.37Q39.55-34.37 38.27-35.71L38.27-35.71L38.27-35.71Q36.99-37.06 36.99-38.14L36.99-38.14L36.99-38.14Q36.99-39.23 38.24-40.58L38.24-40.58L38.24-40.58Q39.49-41.92 40.51-41.92L40.51-41.92L40.51-41.92Q41.60-41.92 42.88-40.58L42.88-40.58L42.88-40.58Q44.16-39.23 44.16-38.14L44.16-38.14L44.16-38.14Q44.16-37.06 42.88-35.71L42.88-35.71L42.88-35.71Q41.60-34.37 40.51-34.37L40.51-34.37ZM42.43 0.83L42.43 0.83Q40.06 0.83 39.01-0.61L39.01-0.61L39.01-0.61Q37.95-2.05 37.95-5.31L37.95-5.31L37.95-23.23L37.95-23.23Q37.95-24 37.70-24.32L37.70-24.32L37.70-24.32Q37.44-24.64 36.80-24.64L36.80-24.64L34.18-24.64L33.73-26.05L33.73-26.05Q35.39-27.58 37.54-28.54L37.54-28.54L37.54-28.54Q39.68-29.50 41.28-29.50L41.28-29.50L41.28-29.50Q42.11-29.50 42.66-29.02L42.66-29.02L42.66-29.02Q43.20-28.54 43.20-27.78L43.20-27.78L43.20-5.12L43.20-5.12Q43.20-3.14 44.93-3.14L44.93-3.14L44.93-3.14Q46.27-3.14 47.87-4.35L47.87-4.35L48.96-2.88L48.96-2.88Q47.36-1.22 45.60-0.19L45.60-0.19L45.60-0.19Q43.84 0.83 42.43 0.83L42.43 0.83ZM59.90 0.83L59.90 0.83Q57.47 0.83 56.42-0.61L56.42-0.61L56.42-0.61Q55.36-2.05 55.36-5.31L55.36-5.31L55.36-39.10L55.36-39.10Q55.36-39.81 55.10-40.10L55.10-40.10L55.10-40.10Q54.85-40.38 54.21-40.38L54.21-40.38L51.71-40.38L51.14-41.86L51.14-41.86Q52.80-43.39 54.98-44.38L54.98-44.38L54.98-44.38Q57.15-45.38 58.88-45.38L58.88-45.38L58.88-45.38Q59.71-45.38 60.22-44.86L60.22-44.86L60.22-44.86Q60.74-44.35 60.74-43.52L60.74-43.52L60.61-5.12L60.61-5.12Q60.61-4.16 61.06-3.65L61.06-3.65L61.06-3.65Q61.50-3.14 62.34-3.14L62.34-3.14L62.34-3.14Q63.94-3.14 65.22-4.35L65.22-4.35L66.37-2.88L66.37-2.88Q64.90-1.22 63.10-0.19L63.10-0.19L63.10-0.19Q61.31 0.83 59.90 0.83L59.90 0.83ZM114.05 0.83L114.05 0.83Q111.68 0.83 110.62-0.61L110.62-0.61L110.62-0.61Q109.57-2.05 109.57-5.31L109.57-5.31L109.57-19.14L109.57-19.14Q109.57-25.09 105.28-25.09L105.28-25.09L105.28-25.09Q102.91-25.09 101.02-23.20L101.02-23.20L101.02-23.20Q99.14-21.31 98.05-17.89L98.05-17.89L98.05-17.89Q96.96-14.46 96.90-9.98L96.90-9.98L96.90-9.28L96.90-9.28Q96.90-6.34 97.38-4.54L97.38-4.54L97.38-4.54Q97.86-2.75 99.39-0.90L99.39-0.90L98.69 0L91.71 0L91.71-19.14L91.71-19.14Q91.71-22.08 90.59-23.58L90.59-23.58L90.59-23.58Q89.47-25.09 87.30-25.09L87.30-25.09L87.30-25.09Q84.80-25.09 82.91-23.10L82.91-23.10L82.91-23.10Q81.02-21.12 80-17.54L80-17.54L80-17.54Q78.98-13.95 78.98-9.28L78.98-9.28L78.98-9.28Q78.98-6.59 79.39-4.93L79.39-4.93L79.39-4.93Q79.81-3.26 80.83-1.79L80.83-1.79L81.54-0.90L80.83 0L70.66 0L70.08-1.79L71.17-2.11L71.17-2.11Q72.70-2.37 73.18-3.30L73.18-3.30L73.18-3.30Q73.66-4.22 73.66-6.46L73.66-6.46L73.66-22.72L73.66-22.72Q73.66-23.42 73.41-23.71L73.41-23.71L73.41-23.71Q73.15-24 72.51-24L72.51-24L70.02-24L69.44-25.54L69.44-25.54Q71.10-27.07 73.28-28.03L73.28-28.03L73.28-28.03Q75.46-28.99 77.12-28.99L77.12-28.99L77.12-28.99Q77.95-28.99 78.46-28.48L78.46-28.48L78.46-28.48Q78.98-27.97 78.98-27.20L78.98-27.20L78.98-20.86L78.98-20.86Q80.45-24.70 83.36-27.10L83.36-27.10L83.36-27.10Q86.27-29.50 89.47-29.50L89.47-29.50L89.47-29.50Q93.06-29.50 94.85-27.42L94.85-27.42L94.85-27.42Q96.64-25.34 96.90-20.86L96.90-20.86L96.90-20.86Q98.37-24.64 101.31-27.07L101.31-27.07L101.31-27.07Q104.26-29.50 107.39-29.50L107.39-29.50L107.39-29.50Q111.30-29.50 113.06-27.01L113.06-27.01L113.06-27.01Q114.82-24.51 114.82-19.14L114.82-19.14L114.82-5.12L114.82-5.12Q114.82-3.14 116.48-3.14L116.48-3.14L116.48-3.14Q117.95-3.14 119.36-4.35L119.36-4.35L120.51-2.88L120.51-2.88Q118.98-1.15 117.25-0.16L117.25-0.16L117.25-0.16Q115.52 0.83 114.05 0.83L114.05 0.83ZM141.25 0L140.48-1.98L141.82-2.30L141.82-2.30Q144.19-3.01 145.22-4L145.22-4L145.22-4Q146.24-4.99 147.14-7.68L147.14-7.68L156.22-33.92L156.22-33.92Q156.86-35.97 156.86-36.74L156.86-36.74L156.86-36.74Q156.86-37.82 156.26-38.43L156.26-38.43L156.26-38.43Q155.65-39.04 154.30-39.30L154.30-39.30L152.96-39.62L153.66-41.60L164.80-41.60L176.51-8.06L176.51-8.06Q177.47-5.31 178.53-3.97L178.53-3.97L178.53-3.97Q179.58-2.62 181.76-0.96L181.76-0.96L180.99 0L167.87 0L167.23-1.98L168.64-2.30L168.64-2.30Q169.98-2.62 170.59-3.23L170.59-3.23L170.59-3.23Q171.20-3.84 171.20-4.93L171.20-4.93L171.20-4.93Q171.20-5.57 170.91-6.43L170.91-6.43L170.91-6.43Q170.62-7.30 170.50-7.68L170.50-7.68L167.74-15.81L154.37-15.81L152.96-11.58L152.96-11.58Q151.68-7.62 151.68-5.50L151.68-5.50L151.68-5.50Q151.68-3.39 152.51-1.98L152.51-1.98L152.96-0.96L151.87 0L141.25 0ZM161.02-35.71L155.65-19.46L166.59-19.46L161.02-35.71ZM185.86 0L185.28-1.79L186.37-2.11L186.37-2.11Q187.90-2.37 188.38-3.30L188.38-3.30L188.38-3.30Q188.86-4.22 188.86-6.46L188.86-6.46L188.86-22.72L188.86-22.72Q188.86-23.42 188.61-23.71L188.61-23.71L188.61-23.71Q188.35-24 187.71-24L187.71-24L185.22-24L184.64-25.54L184.64-25.54Q186.30-27.07 188.48-28.03L188.48-28.03L188.48-28.03Q190.66-28.99 192.32-28.99L192.32-28.99L192.32-28.99Q193.15-28.99 193.66-28.48L193.66-28.48L193.66-28.48Q194.18-27.97 194.18-27.20L194.18-27.20L194.18-20.86L194.50-20.86L194.50-20.86Q195.52-24.77 197.60-27.14L197.60-27.14L197.60-27.14Q199.68-29.50 202.11-29.50L202.11-29.50L202.11-29.50Q204.54-29.50 206.11-27.94L206.11-27.94L206.11-27.94Q207.68-26.37 207.68-23.62L207.68-23.62L207.68-23.62Q207.68-21.44 206.08-19.97L206.08-19.97L206.08-19.97Q204.48-18.50 202.05-18.50L202.05-18.50L202.05-18.50Q200.90-18.50 200.90-19.07L200.90-19.07L200.90-19.07Q200.90-19.26 201.34-19.97L201.34-19.97L201.34-19.97Q201.79-20.67 202.11-21.38L202.11-21.38L202.11-21.38Q202.43-22.08 202.43-23.04L202.43-23.04L202.43-23.04Q202.43-24.13 201.92-24.74L201.92-24.74L201.92-24.74Q201.41-25.34 200.58-25.34L200.58-25.34L200.58-25.34Q199.23-25.34 197.76-23.68L197.76-23.68L197.76-23.68Q196.29-22.02 195.23-18.37L195.23-18.37L195.23-18.37Q194.18-14.72 194.18-9.09L194.18-9.09L194.18-9.09Q194.18-6.46 194.59-4.83L194.59-4.83L194.59-4.83Q195.01-3.20 196.03-1.79L196.03-1.79L196.74-0.90L196.03 0L185.86 0ZM218.43 0.83L218.43 0.83Q216.06 0.83 214.72-0.67L214.72-0.67L214.72-0.67Q213.38-2.18 213.38-4.80L213.38-4.80L213.38-25.22L208.32-25.22L208.32-25.22Q208.32-26.75 208.58-27.23L208.58-27.23L208.58-27.23Q208.83-27.71 209.73-27.97L209.73-27.97L209.73-27.97Q212.80-28.74 214.08-30.53L214.08-30.53L214.08-30.53Q215.36-32.32 216-35.26L216-35.26L216-35.26Q216.13-36.16 216.61-36.38L216.61-36.38L216.61-36.38Q217.09-36.61 218.75-36.61L218.75-36.61L218.75-28.80L226.24-28.80L226.24-28.80Q226.24-27.58 225.89-26.62L225.89-26.62L225.89-26.62Q225.54-25.66 224.96-25.22L224.96-25.22L218.75-25.22L218.75-6.46L218.75-6.46Q218.75-4.67 219.23-3.94L219.23-3.94L219.23-3.94Q219.71-3.20 220.93-3.20L220.93-3.20L220.93-3.20Q222.66-3.20 224.83-5.06L224.83-5.06L225.92-3.52L225.92-3.52Q224.45-1.60 222.34-0.38L222.34-0.38L222.34-0.38Q220.22 0.83 218.43 0.83L218.43 0.83ZM236.22-34.37L236.22-34.37Q235.26-34.37 233.98-35.71L233.98-35.71L233.98-35.71Q232.70-37.06 232.70-38.14L232.70-38.14L232.70-38.14Q232.70-39.23 233.95-40.58L233.95-40.58L233.95-40.58Q235.20-41.92 236.22-41.92L236.22-41.92L236.22-41.92Q237.31-41.92 238.59-40.58L238.59-40.58L238.59-40.58Q239.87-39.23 239.87-38.14L239.87-38.14L239.87-38.14Q239.87-37.06 238.59-35.71L238.59-35.71L238.59-35.71Q237.31-34.37 236.22-34.37L236.22-34.37ZM238.14 0.83L238.14 0.83Q235.78 0.83 234.72-0.61L234.72-0.61L234.72-0.61Q233.66-2.05 233.66-5.31L233.66-5.31L233.66-23.23L233.66-23.23Q233.66-24 233.41-24.32L233.41-24.32L233.41-24.32Q233.15-24.64 232.51-24.64L232.51-24.64L229.89-24.64L229.44-26.05L229.44-26.05Q231.10-27.58 233.25-28.54L233.25-28.54L233.25-28.54Q235.39-29.50 236.99-29.50L236.99-29.50L236.99-29.50Q237.82-29.50 238.37-29.02L238.37-29.02L238.37-29.02Q238.91-28.54 238.91-27.78L238.91-27.78L238.91-5.12L238.91-5.12Q238.91-3.14 240.64-3.14L240.64-3.14L240.64-3.14Q241.98-3.14 243.58-4.35L243.58-4.35L244.67-2.88L244.67-2.88Q243.07-1.22 241.31-0.19L241.31-0.19L241.31-0.19Q239.55 0.83 238.14 0.83L238.14 0.83ZM258.69 0.83L258.69 0.83Q254.34 0.83 251.46-1.18L251.46-1.18L251.46-1.18Q248.58-3.20 248.58-6.46L248.58-6.46L248.58-6.46Q248.58-8.38 249.95-9.70L249.95-9.70L249.95-9.70Q251.33-11.01 253.44-11.01L253.44-11.01L253.44-11.01Q253.89-11.01 254.27-10.82L254.27-10.82L254.27-10.82Q254.66-10.62 254.66-10.30L254.66-10.30L254.66-10.30Q254.66-10.11 254.27-9.18L254.27-9.18L254.27-9.18Q253.89-8.26 253.89-6.98L253.89-6.98L253.89-6.98Q253.89-4.61 255.58-3.33L255.58-3.33L255.58-3.33Q257.28-2.05 259.39-2.05L259.39-2.05L259.39-2.05Q261.82-2.05 263.36-3.33L263.36-3.33L263.36-3.33Q264.90-4.61 264.90-6.66L264.90-6.66L264.90-6.66Q264.90-8.51 263.26-9.73L263.26-9.73L263.26-9.73Q261.63-10.94 258.56-12.22L258.56-12.22L258.56-12.22Q255.74-13.44 253.86-14.53L253.86-14.53L253.86-14.53Q251.97-15.62 250.62-17.41L250.62-17.41L250.62-17.41Q249.28-19.20 249.28-21.76L249.28-21.76L249.28-21.76Q249.28-25.15 252.29-27.33L252.29-27.33L252.29-27.33Q255.30-29.50 259.84-29.50L259.84-29.50L259.84-29.50Q264-29.50 266.69-27.94L266.69-27.94L266.69-27.94Q269.38-26.37 269.38-23.62L269.38-23.62L269.38-23.62Q269.38-21.38 268.03-19.97L268.03-19.97L268.03-19.97Q266.69-18.56 264.51-18.56L264.51-18.56L264.51-18.56Q263.23-18.56 263.23-19.39L263.23-19.39L263.23-19.39Q263.23-19.65 263.71-20.54L263.71-20.54L263.71-20.54Q264.19-21.44 264.19-22.59L264.19-22.59L264.19-22.59Q264.19-24.64 262.72-25.70L262.72-25.70L262.72-25.70Q261.25-26.75 259.39-26.75L259.39-26.75L259.39-26.75Q257.02-26.75 255.65-25.60L255.65-25.60L255.65-25.60Q254.27-24.45 254.27-22.59L254.27-22.59L254.27-22.59Q254.27-20.42 256.06-19.04L256.06-19.04L256.06-19.04Q257.86-17.66 261.12-16.45L261.12-16.45L261.12-16.45Q263.94-15.23 265.79-14.21L265.79-14.21L265.79-14.21Q267.65-13.18 268.93-11.62L268.93-11.62L268.93-11.62Q270.21-10.05 270.21-7.94L270.21-7.94L270.21-7.94Q270.21-3.97 267.04-1.57L267.04-1.57L267.04-1.57Q263.87 0.83 258.69 0.83L258.69 0.83ZM284.10 0.83L284.10 0.83Q281.73 0.83 280.38-0.67L280.38-0.67L280.38-0.67Q279.04-2.18 279.04-4.80L279.04-4.80L279.04-25.22L273.98-25.22L273.98-25.22Q273.98-26.75 274.24-27.23L274.24-27.23L274.24-27.23Q274.50-27.71 275.39-27.97L275.39-27.97L275.39-27.97Q278.46-28.74 279.74-30.53L279.74-30.53L279.74-30.53Q281.02-32.32 281.66-35.26L281.66-35.26L281.66-35.26Q281.79-36.16 282.27-36.38L282.27-36.38L282.27-36.38Q282.75-36.61 284.42-36.61L284.42-36.61L284.42-28.80L291.90-28.80L291.90-28.80Q291.90-27.58 291.55-26.62L291.55-26.62L291.55-26.62Q291.20-25.66 290.62-25.22L290.62-25.22L284.42-25.22L284.42-6.46L284.42-6.46Q284.42-4.67 284.90-3.94L284.90-3.94L284.90-3.94Q285.38-3.20 286.59-3.20L286.59-3.20L286.59-3.20Q288.32-3.20 290.50-5.06L290.50-5.06L291.58-3.52L291.58-3.52Q290.11-1.60 288-0.38L288-0.38L288-0.38Q285.89 0.83 284.10 0.83L284.10 0.83ZM296.58 0L296-1.79L297.09-2.11L297.09-2.11Q298.62-2.37 299.10-3.30L299.10-3.30L299.10-3.30Q299.58-4.22 299.58-6.46L299.58-6.46L299.58-22.72L299.58-22.72Q299.58-23.42 299.33-23.71L299.33-23.71L299.33-23.71Q299.07-24 298.43-24L298.43-24L295.94-24L295.36-25.54L295.36-25.54Q297.02-27.07 299.20-28.03L299.20-28.03L299.20-28.03Q301.38-28.99 303.04-28.99L303.04-28.99L303.04-28.99Q303.87-28.99 304.38-28.48L304.38-28.48L304.38-28.48Q304.90-27.97 304.90-27.20L304.90-27.20L304.90-20.86L305.22-20.86L305.22-20.86Q306.24-24.77 308.32-27.14L308.32-27.14L308.32-27.14Q310.40-29.50 312.83-29.50L312.83-29.50L312.83-29.50Q315.26-29.50 316.83-27.94L316.83-27.94L316.83-27.94Q318.40-26.37 318.40-23.62L318.40-23.62L318.40-23.62Q318.40-21.44 316.80-19.97L316.80-19.97L316.80-19.97Q315.20-18.50 312.77-18.50L312.77-18.50L312.77-18.50Q311.62-18.50 311.62-19.07L311.62-19.07L311.62-19.07Q311.62-19.26 312.06-19.97L312.06-19.97L312.06-19.97Q312.51-20.67 312.83-21.38L312.83-21.38L312.83-21.38Q313.15-22.08 313.15-23.04L313.15-23.04L313.15-23.04Q313.15-24.13 312.64-24.74L312.64-24.74L312.64-24.74Q312.13-25.34 311.30-25.34L311.30-25.34L311.30-25.34Q309.95-25.34 308.48-23.68L308.48-23.68L308.48-23.68Q307.01-22.02 305.95-18.37L305.95-18.37L305.95-18.37Q304.90-14.72 304.90-9.09L304.90-9.09L304.90-9.09Q304.90-6.46 305.31-4.83L305.31-4.83L305.31-4.83Q305.73-3.20 306.75-1.79L306.75-1.79L307.46-0.90L306.75 0L296.58 0ZM335.30 16.19L335.30 16.19Q332.10 16.19 329.82 15.01L329.82 15.01L329.82 15.01Q327.55 13.82 326.43 11.90L326.43 11.90L326.43 11.90Q325.31 9.98 325.31 7.87L325.31 7.87L325.31 7.87Q325.31 4.93 327.30 2.88L327.30 2.88L327.30 2.88Q329.28 0.83 332.74 0.83L332.74 0.83L332.74 0.83Q333.25 0.83 333.50 0.99L333.50 0.99L333.50 0.99Q333.76 1.15 333.76 1.41L333.76 1.41L333.76 1.41Q333.76 1.66 332.96 2.53L332.96 2.53L332.96 2.53Q332.16 3.39 331.55 4.61L331.55 4.61L331.55 4.61Q330.94 5.82 330.94 7.68L330.94 7.68L330.94 7.68Q330.94 9.98 332.32 11.55L332.32 11.55L332.32 11.55Q333.70 13.12 336 13.12L336 13.12L336 13.12Q339.58 13.12 341.31 10.14L341.31 10.14L341.31 10.14Q343.04 7.17 343.04 2.18L343.04 2.18L343.04-6.40L343.04-6.40Q341.63-3.84 338.98-2.37L338.98-2.37L338.98-2.37Q336.32-0.90 333.06-0.90L333.06-0.90L333.06-0.90Q328.96-0.90 326.69-3.42L326.69-3.42L326.69-3.42Q324.42-5.95 324.42-10.50L324.42-10.50L324.42-23.30L324.42-23.30Q324.42-24.06 324.16-24.38L324.16-24.38L324.16-24.38Q323.90-24.70 323.26-24.70L323.26-24.70L320.64-24.70L320.19-26.11L320.19-26.11Q321.66-27.65 323.81-28.61L323.81-28.61L323.81-28.61Q325.95-29.57 327.74-29.57L327.74-29.57L327.74-29.57Q328.58-29.57 329.12-29.09L329.12-29.09L329.12-29.09Q329.66-28.61 329.66-27.84L329.66-27.84L329.66-11.84L329.66-11.84Q329.66-8.38 331.07-6.59L331.07-6.59L331.07-6.59Q332.48-4.80 335.10-4.80L335.10-4.80L335.10-4.80Q339.01-4.80 341.18-7.68L341.18-7.68L341.18-7.68Q343.36-10.56 343.36-15.81L343.36-15.81L343.36-15.81Q343.36-20.61 342.98-22.91L342.98-22.91L342.98-22.91Q342.59-25.22 341.06-27.14L341.06-27.14L340.42-28.03L341.06-28.86L348.16-29.57L348.16 1.28L348.16 1.28Q348.16 8.38 344.70 12.29L344.70 12.29L344.70 12.29Q341.25 16.19 335.30 16.19L335.30 16.19Z" fill="#63bcc7"/>
    </g>
  </g>
</svg>